<svg version="1.1" width="128" height="128" viewBox="0.0 0.0 128.0 128.0" fill="none" stroke="none" stroke-linecap="square" stroke-miterlimit="10" xmlns:xlink="http://www.w3.org/1999/xlink" xmlns="http://www.w3.org/2000/svg"><clipPath id="p.0"><path d="m0 0l128.0 0l0 128.0l-128.0 0l0 -128.0z" clip-rule="nonzero"/></clipPath><g clip-path="url(#p.0)"><path fill="#000000" fill-opacity="0.0" d="m0 0l128.0 0l0 128.0l-128.0 0z" fill-rule="evenodd"/><defs><linearGradient id="p.1" gradientUnits="userSpaceOnUse" gradientTransform="matrix(13.45434223994269 0.0 0.0 13.45434223994269 0.0 0.0)" spreadMethod="pad" x1="-4.75683546116593" y1="4.756804217898586" x2="4.7568038368831305" y2="14.27047818835409"><stop offset="0.0" stop-color="#bfbfbf"/><stop offset="1.0" stop-color="#737373"/></linearGradient></defs><path fill="url(#p.1)" d="m-9.4225725E-5 -9.4225725E-5l128.0 0l0 128.0l-128.0 0zm27.24992 27.24992l0 73.50016l73.50016 0l0 -73.50016z" fill-rule="evenodd"/><defs><radialGradient id="p.2" gradientUnits="userSpaceOnUse" gradientTransform="matrix(7.881246090830163 0.0 0.0 7.881246090830163 0.0 0.0)" spreadMethod="pad" cx="8.119877227362048" cy="8.119877227362048" fx="8.119877227362048" fy="8.119877227362048" r="7.881246089935303"><stop offset="0.0" stop-color="#696969"/><stop offset="1.0" stop-color="#1d1d1d"/></radialGradient></defs><path fill="url(#p.2)" d="m20.07349 34.99969l0 0c0 -8.243513 6.6826878 -14.926201 14.926201 -14.926201l57.990116 0l0 0c3.9586792 0 7.755211 1.5725784 10.55442 4.371784c2.799202 2.7992058 4.3717804 6.595743 4.3717804 10.554417l0 57.990116c0 8.243515 -6.682686 14.926201 -14.926201 14.926201l-57.990116 0c-8.243513 0 -14.926201 -6.682686 -14.926201 -14.926201z" fill-rule="evenodd"/><defs><linearGradient id="p.3" gradientUnits="userSpaceOnUse" gradientTransform="matrix(2.5961813265476974 0.0 0.0 2.5961813265476974 0.0 0.0)" spreadMethod="pad" x1="23.35350025048746" y1="41.58035116027268" x2="25.949681577035157" y2="41.58035116027268"><stop offset="0.0" stop-color="#d9d9d9"/><stop offset="0.5" stop-color="#f3f3f3"/><stop offset="1.0" stop-color="#d9d9d9"/></linearGradient></defs><path fill="url(#p.3)" d="m60.62992 91.16273l6.740158 0l0 16.787407l-6.740158 0z" fill-rule="evenodd"/><path fill="#f3f3f3" d="m42.139107 89.42519l43.74803 0l0 4.3149643l-43.74803 0z" fill-rule="evenodd"/><path fill="#75ff39" d="m58.712894 115.59161l1.795208 3.7331696l6.9675827 0l1.7952042 -3.7331696z" fill-rule="evenodd"/><path fill="#8fff5f" d="m66.623665 121.1115l-2.6298409 5.4219894l-2.629837 -5.4219894z" fill-rule="evenodd"/><path fill="#4dff00" d="m55.88242 109.74935l1.9483261 4.042343l12.342258 0l1.9483261 -4.042343z" fill-rule="evenodd"/><path fill="#6e6e6e" d="m58.703373 12.594948l1.7952042 -3.7331724l6.9675865 0l1.7952042 3.7331724z" fill-rule="evenodd"/><path fill="#828282" d="m66.61414 7.0750575l-2.6298409 -5.421987l-2.629837 5.421987z" fill-rule="evenodd"/><path fill="#595959" d="m55.8729 18.437206l1.9483261 -4.0423365l12.342258 0l1.9483261 4.0423365z" fill-rule="evenodd"/></g></svg>