<svg version="1.1" width="576" height="128" viewBox="0.0 0.0 576.0 128.0" fill="none" stroke="none" stroke-linecap="square" stroke-miterlimit="10" xmlns:xlink="http://www.w3.org/1999/xlink" xmlns="http://www.w3.org/2000/svg"><clipPath id="p.0"><path d="m0 0l576.0 0l0 128.0l-576.0 0l0 -128.0z" clip-rule="nonzero"/></clipPath><g clip-path="url(#p.0)"><path fill="#000000" fill-opacity="0.0" d="m0 0l576.0 0l0 128.0l-576.0 0z" fill-rule="evenodd"/><path fill="#ffffff" fill-opacity="0.4524" d="m0 21.353445l0 0c0 -11.7823105 9.55145 -21.33376 21.33376 -21.33376l533.3325 0c5.65802 0 11.084351 2.2476575 15.085205 6.248513c4.0008545 4.000856 6.248535 9.427181 6.248535 15.085247l0 85.33248c0 11.7823105 -9.551453 21.333755 -21.33374 21.333755l-533.3325 0c-11.78231 0 -21.33376 -9.551445 -21.33376 -21.333755z" fill-rule="evenodd"/><path fill="#ffffff" d="m100.60582 36.585308q4.078125 0 8.875 0.4375q4.796875 0.4375 9.359375 1.796875l-0.796875 8.078125q-3.515625 -0.078125 -8.25 -0.15625q-4.71875 -0.078125 -9.265625 -0.078125q-2.25 0 -3.8125 0.125q-1.5625 0.109375 -2.515625 0.640625q-0.953125 0.515625 -1.359375 1.5625q-0.40625 1.03125 -0.40625 2.875q0 2.796875 1.3125 4.078125q1.328125 1.28125 4.53125 2.3125l10.640625 3.4375q6.640625 2.25 9.203125 6.093746q2.5625 3.828125 2.5625 10.078125q0 4.71875 -1.125 7.84375q-1.125 3.109375 -3.53125 4.875q-2.390625 1.75 -6.3125 2.515625q-3.921875 0.765625 -9.59375 0.765625q-2.71875 0 -7.765625 -0.375q-5.03125 -0.359375 -11.515625 -1.796875l0.796875 -8.640625q4.71875 0.078125 8.203125 0.203125q3.484375 0.125 5.953125 0.171875q2.484375 0.03125 4.328125 0.03125q3.203125 0 5.0 -0.390625q1.796875 -0.40625 2.515625 -1.609375q0.71875 -1.203125 0.71875 -3.4375q0 -1.921875 -0.515625 -3.078125q-0.515625 -1.171875 -1.6875 -1.84375q-1.15625 -0.6875 -3.15625 -1.234375l-11.203125 -3.84375q-6.3125 -2.328125 -8.953125 -6.078121q-2.640625 -3.765625 -2.640625 -9.921875q0 -4.796875 1.15625 -7.796875q1.171875 -3.0 3.609375 -4.671875q2.4375 -1.6875 6.3125 -2.328125q3.875 -0.640625 9.328125 -0.640625zm43.108704 5.75l0 37.843746q0 2.15625 1.0 3.078125q1.0 0.921875 3.328125 0.921875l5.125 0l1.265625 8.0q-1.4375 0.484375 -3.515625 0.84375q-2.078125 0.359375 -4.15625 0.546875q-2.078125 0.203125 -3.515625 0.203125q-5.359375 0 -8.359375 -2.875q-3.0 -2.875 -3.0 -8.078125l-0.09375 -40.48437l11.921875 0zm11.046875 10.96875l0 7.75l-29.84375 0l0 -7.359375l7.6875 -0.390625l22.15625 0zm27.206223 -1.046875q4.953125 0 8.390625 1.328125q3.4375 1.3125 5.234375 4.484375q1.8125 3.15625 1.8125 8.671871l0 26.078125l-9.4375 0l-1.6875 -8.5625l-0.796875 -1.203125l0 -16.390625q0 -2.7968712 -1.328125 -4.078121q-1.3125 -1.28125 -5.0 -1.28125q-3.03125 0 -7.59375 0.203125q-4.5625 0.1875 -9.359375 0.515625l-1.125 -7.84375q2.890625 -0.5625 6.640625 -0.953125q3.765625 -0.40625 7.515625 -0.6875q3.765625 -0.28125 6.734375 -0.28125zm10.546875 16.249996l-0.078125 6.625l-17.59375 0.09375q-2.15625 0 -3.078125 1.046875q-0.921875 1.03125 -0.921875 2.78125l0 1.921875q0 2.0 1.109375 3.078125q1.125 1.078125 3.609375 1.078125q2.078125 0 4.515625 -0.875q2.4375 -0.875 4.84375 -2.46875q2.40625 -1.609375 4.234375 -3.765625l0 5.109375q-0.71875 1.203125 -2.125 3.015625q-1.390625 1.796875 -3.546875 3.515625q-2.15625 1.71875 -5.046875 2.921875q-2.875 1.1875 -6.5625 1.1875q-3.59375 0 -6.484375 -1.265625q-2.875 -1.28125 -4.5625 -3.765625q-1.671875 -2.484375 -1.671875 -6.15625l0 -4.078125q0 -4.734375 3.203125 -7.359375q3.203125 -2.640625 8.796875 -2.640625l21.359375 0zm23.44371 -15.203121l1.4375 7.828125l1.125 1.046875l0 30.640621l-11.84375 0l0 -39.51562l9.28125 0zm19.28125 -1.046875l-1.125 10.96875l-3.28125 0q-2.796875 0 -5.84375 0.7968712q-3.03125 0.796875 -7.671875 2.390625l-0.796875 -6.640621q4.15625 -3.671875 8.390625 -5.59375q4.25 -1.921875 8.25 -1.921875l2.078125 0zm21.034988 -9.921875l0 37.843746q0 2.15625 1.0 3.078125q1.0 0.921875 3.328125 0.921875l5.125 0l1.265625 8.0q-1.4375 0.484375 -3.515625 0.84375q-2.078125 0.359375 -4.15625 0.546875q-2.078125 0.203125 -3.5156403 0.203125q-5.359375 0 -8.359375 -2.875q-3.0 -2.875 -3.0 -8.078125l-0.09375 -40.48437l11.92189 0zm11.046875 10.96875l0 7.75l-29.843765 0l0 -7.359375l7.6875 -0.390625l22.156265 0zm47.111206 -16.796875q3.609375 0 6.5625 0.234375q2.96875 0.234375 5.640625 0.640625q2.6875 0.390625 5.25 1.203125l-0.96875 8.875q-2.796875 -0.15625 -5.4375 -0.234375q-2.640625 -0.09375 -5.28125 -0.125q-2.640625 -0.046875 -5.515625 -0.046875q-3.4375 0 -5.71875 0.734375q-2.28125 0.71875 -3.640625 2.671875q-1.359375 1.953125 -1.96875 5.59375q-0.59375 3.640625 -0.59375 9.328121q0 6.875 0.875 10.796875q0.890625 3.921875 2.96875 5.5625q2.078125 1.640625 5.59375 1.640625q2.40625 0 4.40625 -0.484375q2.0 -0.484375 3.671875 -1.3125q1.6875 -0.84375 3.125 -1.640625l1.28125 5.75q-1.203125 1.6875 -3.5625 3.609375q-2.359375 1.921875 -5.71875 3.28125q-3.359375 1.359375 -7.6875 1.359375q-6.234375 0 -10.203125 -2.953125q-3.953125 -2.96875 -5.796875 -9.328125q-1.828125 -6.359375 -1.828125 -16.53125q0 -10.796871 2.359375 -17.031246q2.359375 -6.234375 7.75 -8.90625q5.40625 -2.6875 14.4375 -2.6875zm19.375 24.46875l0 31.843746l-9.046875 0l-1.6875 -8.40625l-1.109375 -2.234375l0 -21.203121l11.84375 0zm29.839905 -8.71875q4.953125 0 8.390625 1.328125q3.4375 1.3125 5.234375 4.484375q1.8125 3.15625 1.8125 8.671871l0 26.078125l-9.4375 0l-1.6875 -8.5625l-0.796875 -1.203125l0 -16.390625q0 -2.7968712 -1.328125 -4.078121q-1.3125 -1.28125 -5.0 -1.28125q-3.03125 0 -7.59375 0.203125q-4.5625 0.1875 -9.359375 0.515625l-1.125 -7.84375q2.890625 -0.5625 6.640625 -0.953125q3.765625 -0.40625 7.515625 -0.6875q3.765625 -0.28125 6.734375 -0.28125zm10.546875 16.249996l-0.078125 6.625l-17.59375 0.09375q-2.15625 0 -3.078125 1.046875q-0.921875 1.03125 -0.921875 2.78125l0 1.921875q0 2.0 1.109375 3.078125q1.125 1.078125 3.609375 1.078125q2.078125 0 4.515625 -0.875q2.4375 -0.875 4.84375 -2.46875q2.40625 -1.609375 4.234375 -3.765625l0 5.109375q-0.71875 1.203125 -2.125 3.015625q-1.390625 1.796875 -3.546875 3.515625q-2.15625 1.71875 -5.046875 2.921875q-2.875 1.1875 -6.5625 1.1875q-3.59375 0 -6.484375 -1.265625q-2.875 -1.28125 -4.5625 -3.765625q-1.671875 -2.484375 -1.671875 -6.15625l0 -4.078125q0 -4.734375 3.203125 -7.359375q3.203125 -2.640625 8.796875 -2.640625l21.359375 0zm64.2406 -16.249996q5.359375 0 8.15625 2.8125q2.8125 2.796875 2.8125 8.15625l0 29.593746l-11.765625 0l0 -25.921875q0 -2.484375 -0.96875 -3.5624962q-0.953125 -1.078125 -3.34375 -1.078125q-1.453125 0 -2.734375 0.40625q-1.265625 0.390625 -2.953125 1.28125q-1.671875 0.8749962 -4.078125 2.3906212l-0.640625 -6.562496q3.84375 -3.75 7.5625 -5.625q3.71875 -1.890625 7.953125 -1.890625zm-40.640625 1.046875l1.203125 7.828125l1.203125 1.046875l0 30.640621l-11.84375 0l0 -39.51562l9.4375 0zm16.0 -1.046875q5.28125 0 8.046875 2.765625q2.765625 2.75 2.765625 8.203125l0 29.593746l-11.359375 0l0 -25.921875q0 -2.5625 -1.09375 -3.5937462q-1.078125 -1.046875 -3.3125 -1.046875q-1.359375 0 -2.6875 0.359375q-1.3125 0.359375 -3.03125 1.25q-1.71875 0.8749962 -4.203125 2.4687462l-0.71875 -6.562496q3.921875 -3.75 7.59375 -5.625q3.6875 -1.890625 8.0 -1.890625zm63.76117 0q10.0 0 14.359375 3.40625q4.359375 3.390625 4.359375 10.109371q0.078125 5.453125 -2.71875 8.140625q-2.796875 2.671875 -9.671875 2.671875l-22.078125 0l0 -6.640625l18.796875 0q2.71875 0 3.46875 -1.15625q0.765625 -1.171875 0.765625 -3.25q-0.078125 -2.7968712 -1.640625 -3.8749962q-1.5625 -1.078125 -5.234375 -1.078125q-3.28125 0 -5.125 0.875q-1.84375 0.875 -2.5625 3.3593712q-0.71875 2.484375 -0.71875 7.203125q0 4.953125 0.875 7.640625q0.890625 2.671875 3.0 3.71875q2.125 1.03125 5.890625 1.03125q2.71875 0 6.75 -0.1875q4.046875 -0.203125 8.125 -0.6875l1.125 7.28125q-2.328125 1.125 -5.28125 1.765625q-2.953125 0.640625 -6.078125 0.90625q-3.125 0.28125 -6.0 0.28125q-7.515625 0 -12.125 -2.1875q-4.59375 -2.203125 -6.640625 -6.765625q-2.03125 -4.5625 -2.03125 -11.6875q0 -7.75 2.078125 -12.312496q2.078125 -4.5625 6.546875 -6.5625q4.484375 -2.0 11.765625 -2.0z" fill-rule="nonzero"/></g></svg>