<svg version="1.1" width="1088" height="256" viewBox="0.0 0.0 1088.0 256.0" fill="none" stroke="none" stroke-linecap="square" stroke-miterlimit="10" xmlns:xlink="http://www.w3.org/1999/xlink" xmlns="http://www.w3.org/2000/svg"><clipPath id="p.0"><path d="m0 0l1088.0 0l0 256.0l-1088.0 0l0 -256.0z" clip-rule="nonzero"/></clipPath><g clip-path="url(#p.0)"><path fill="#000000" fill-opacity="0.0" d="m0 0l1088.0 0l0 256.0l-1088.0 0z" fill-rule="evenodd"/><path fill="#f3f3f3" d="m260.42905 178.78285l93.987274 0l0 22.015747l-93.987274 0z" fill-rule="evenodd"/><path fill="#f3f3f3" d="m260.42905 48.30485l93.987274 0l0 21.38583l-93.987274 0z" fill-rule="evenodd"/><path fill="#f3f3f3" d="m298.62897 68.8602l17.595917 0l0 110.77165l-17.595917 0z" fill-rule="evenodd"/><path fill="#f3f3f3" d="m0.8528604 49.049397l17.56168 0l30.514435 96.26352l30.68504 -97.00391l17.737534 0.1999054l-48.312336 152.29405z" fill-rule="evenodd"/><path fill="#f3f3f3" d="m498.70978 48.301655l0 152.49101l-21.385834 0l0 -152.49101z" fill-rule="evenodd"/><path fill="#f3f3f3" d="m497.84775 48.333656l57.73227 -0.032016754l0 21.73869l-57.73227 0.03202057z" fill-rule="evenodd"/><path fill="#f3f3f3" d="m497.84766 94.8177l46.582703 -0.03202057l0 21.738693l-46.582703 0.03202057z" fill-rule="evenodd"/><path fill="#f3f3f3" d="m572.22046 48.324844l93.98425 0l0 152.50394l-93.98425 0zm23.755493 23.755463l0 104.99301l46.473328 0l0 -104.99301z" fill-rule="evenodd"/><defs><linearGradient id="p.1" gradientUnits="userSpaceOnUse" gradientTransform="matrix(13.548539492465304 0.0 0.0 13.548539492465304 0.0 0.0)" spreadMethod="pad" x1="3.6233957178643608" y1="10.03173474205797" x2="13.203642463289356" y2="19.612016297193282"><stop offset="0.0" stop-color="#bfbfbf"/><stop offset="1.0" stop-color="#737373"/></linearGradient></defs><path fill="url(#p.1)" d="m113.99101 71.0163l129.79858 0l0 129.79858l-129.79858 0zm27.632812 27.63282l0 74.53295l74.53294 0l0 -74.53295z" fill-rule="evenodd"/><defs><radialGradient id="p.2" gradientUnits="userSpaceOnUse" gradientTransform="matrix(7.936943271029018 0.0 0.0 7.936943271029018 0.0 0.0)" spreadMethod="pad" cx="22.539017108283936" cy="17.1245001203533" fx="22.539017108283936" fy="17.1245001203533" r="7.936943054199219"><stop offset="0.0" stop-color="#696969"/><stop offset="1.0" stop-color="#1d1d1d"/></radialGradient></defs><path fill="url(#p.2)" d="m134.34666 106.50986l0 0c0 -8.3604355 6.777466 -15.137909 15.137909 -15.137909l58.812653 0l0 0c4.0148315 0 7.865219 1.5948792 10.704117 4.433792c2.838913 2.8389053 4.433792 6.689293 4.433792 10.704117l0 58.812653c0 8.360443 -6.777466 15.137924 -15.137909 15.137924l-58.812653 0c-8.360443 0 -15.137909 -6.777481 -15.137909 -15.137924z" fill-rule="evenodd"/><defs><linearGradient id="p.3" gradientUnits="userSpaceOnUse" gradientTransform="matrix(2.612499136620938 0.0 0.0 2.612499136620938 0.0 0.0)" spreadMethod="pad" x1="67.16671084084082" y1="69.08437024212338" x2="69.77920997746176" y2="69.08437024212338"><stop offset="0.0" stop-color="#d9d9d9"/><stop offset="0.5" stop-color="#f3f3f3"/><stop offset="1.0" stop-color="#d9d9d9"/></linearGradient></defs><path fill="url(#p.3)" d="m175.47296 163.4601l6.825165 0l0 17.02275l-6.825165 0z" fill-rule="evenodd"/><path fill="#f3f3f3" d="m156.72234 161.69815l44.36357 0l0 4.376129l-44.36357 0z" fill-rule="evenodd"/><path fill="#75ff39" d="m173.52315 188.22064l1.8202362 3.7852173l7.064728 0l1.8202362 -3.7852173z" fill-rule="evenodd"/><path fill="#8fff5f" d="m181.54422 193.81749l-2.666504 5.497589l-2.666504 -5.497589z" fill-rule="evenodd"/><path fill="#4dff00" d="m170.65321 182.29694l1.9754944 4.098694l12.514328 0l1.9754944 -4.098694z" fill-rule="evenodd"/><path fill="#6e6e6e" d="m173.51349 83.79991l1.8202362 -3.785225l7.064728 0l1.8202362 3.785225z" fill-rule="evenodd"/><path fill="#828282" d="m181.53456 78.20306l-2.666504 -5.4975815l-2.666504 5.4975815z" fill-rule="evenodd"/><path fill="#595959" d="m170.64355 89.723625l1.9754944 -4.0987015l12.514343 0l1.9754791 4.0987015z" fill-rule="evenodd"/><defs><radialGradient id="p.4" gradientUnits="userSpaceOnUse" gradientTransform="matrix(8.53831425074192 0.0 0.0 8.53831425074192 0.0 0.0)" spreadMethod="pad" cx="17.924835604439952" cy="12.90070363716643" fx="17.924835604439952" fy="12.90070363716643" r="8.538313865661621"><stop offset="0.0" stop-color="#fde7ca"/><stop offset="1.0" stop-color="#dbc09c"/></radialGradient></defs><path fill="url(#p.4)" d="m153.04788 135.9253l0 0c0 -14.235153 11.539871 -25.775032 25.77504 -25.775032l0 0c6.8359528 0 13.391937 2.7155762 18.225693 7.5493317c4.8337555 4.833763 7.5493317 11.389748 7.5493317 18.2257l0 0c0 14.235168 -11.539871 25.77504 -25.775024 25.77504l0 0c-14.235168 0 -25.77504 -11.539871 -25.77504 -25.77504z" fill-rule="evenodd"/><path fill="#000000" fill-opacity="0.0" d="m171.0686 148.17622l0.15179443 0.05407715l0.15213013 0.06399536l0.14363098 0.05407715l0.16880798 0.054092407l0.15214539 0.06378174l0.17732239 0.073898315l0.18583679 0.06378174l0.18582153 0.07369995l0.17732239 0.059036255l0.19398499 0.06399536l0.1943512 0.068740845l0.16880798 0.059036255l0.20285034 0.068740845l0.20605469 0.07472229l0.27023315 0.08856201l0.2447052 0.083602905l0.27023315 0.08340454l0.22802734 0.059036255l0.25357056 0.0786438l0.2195282 0.059036255l0.22802734 0.07369995l0.27874756 0.06399536l0.2532196 0.0786438l0.27023315 0.06585693l0.3968506 0.10321045l0.2957611 0.07369995l0.37982178 0.083602905l0.46458435 0.10321045l0.5489807 0.117874146l0.4642334 0.08854675l0.42237854 0.083602905l0.7330322 0.112091064l0.7599945 0.10322571l0.6926117 0.083602905l0.6415558 0.06378174l0.4730835 0.03942871l0.5997009 0.039215088l0.51493835 0.029525757l0.5741577 0.019607544l0.50679016 0.0049591064l0.65856934 0.0049438477l0.6252289 0l0.56565857 -0.014862061l0.43052673 -0.019607544l0.46458435 -0.034469604l0.5152893 -0.03427124l0.38833618 -0.029510498l0.52345276 -0.054092407l0.42237854 -0.0491333l0.77700806 -0.09246826l0.6078644 -0.10322571l0.6082001 -0.093307495l0.47273254 -0.09350586l0.5997009 -0.10321045l0.50679016 -0.10321045l0.46421814 -0.117874146l0.54048157 -0.12799072l0.35499573 -0.08834839l0.21099854 -0.059036255l0.43727112 -0.1277771l0.5745239 -0.15730286l0.455719 -0.13768005l0.5323181 -0.16226196l0.42201233 -0.14242554l0.47309875 -0.15730286l0.6248779 -0.22624207l0.48976135 -0.1818695l0.41386414 -0.1719513l0.28689575 -0.0982666" fill-rule="evenodd"/><path stroke="#000000" stroke-width="1.0" stroke-linejoin="round" stroke-linecap="butt" d="m171.0686 148.17622l0.15179443 0.05407715l0.15213013 0.06399536l0.14363098 0.05407715l0.16880798 0.054092407l0.15214539 0.06378174l0.17732239 0.073898315l0.18583679 0.06378174l0.18582153 0.07369995l0.17732239 0.059036255l0.19398499 0.06399536l0.1943512 0.068740845l0.16880798 0.059036255l0.20285034 0.068740845l0.20605469 0.07472229l0.27023315 0.08856201l0.2447052 0.083602905l0.27023315 0.08340454l0.22802734 0.059036255l0.25357056 0.0786438l0.2195282 0.059036255l0.22802734 0.07369995l0.27874756 0.06399536l0.2532196 0.0786438l0.27023315 0.06585693l0.3968506 0.10321045l0.2957611 0.07369995l0.37982178 0.083602905l0.46458435 0.10321045l0.5489807 0.117874146l0.4642334 0.08854675l0.42237854 0.083602905l0.7330322 0.112091064l0.7599945 0.10322571l0.6926117 0.083602905l0.6415558 0.06378174l0.4730835 0.03942871l0.5997009 0.039215088l0.51493835 0.029525757l0.5741577 0.019607544l0.50679016 0.0049591064l0.65856934 0.0049438477l0.6252289 0l0.56565857 -0.014862061l0.43052673 -0.019607544l0.46458435 -0.034469604l0.5152893 -0.03427124l0.38833618 -0.029510498l0.52345276 -0.054092407l0.42237854 -0.0491333l0.77700806 -0.09246826l0.6078644 -0.10322571l0.6082001 -0.093307495l0.47273254 -0.09350586l0.5997009 -0.10321045l0.50679016 -0.10321045l0.46421814 -0.117874146l0.54048157 -0.12799072l0.35499573 -0.08834839l0.21099854 -0.059036255l0.43727112 -0.1277771l0.5745239 -0.15730286l0.455719 -0.13768005l0.5323181 -0.16226196l0.42201233 -0.14242554l0.47309875 -0.15730286l0.6248779 -0.22624207l0.48976135 -0.1818695l0.41386414 -0.1719513l0.28689575 -0.0982666" fill-rule="evenodd"/><path fill="#ffffff" d="m172.91838 128.1974l0 0c0 -2.0953674 1.6986389 -3.7939987 3.793991 -3.7939987l0 0c1.0062256 0 1.9712524 0.39972687 2.6827545 1.1112366c0.71151733 0.7115097 1.1112366 1.6765289 1.1112366 2.6827621l0 0c0 2.0953522 -1.6986237 3.7939758 -3.793991 3.7939758l0 0c-2.0953522 0 -3.793991 -1.6986237 -3.793991 -3.7939758z" fill-rule="evenodd"/><defs><linearGradient id="p.5" gradientUnits="userSpaceOnUse" gradientTransform="matrix(6.168249757911178 0.0 0.0 6.168249757911178 0.0 0.0)" spreadMethod="pad" x1="31.411383769949428" y1="24.914531328788534" x2="35.773050683861406" y2="20.552975779668834"><stop offset="0.0" stop-color="#666666"/><stop offset="1.0" stop-color="#999999"/></linearGradient></defs><path fill="url(#p.5)" d="m187.44716 111.69287l-2.2835388 -0.825058l2.2835388 4.881157l-1.5223694 2.6614838l-1.0140228 4.500557l-2.1531372 1.7113342l0.44181824 5.716858l3.35878 2.837143l2.283554 6.464737l5.3229523 1.8390808l4.11998 -1.2695312l3.2310333 1.9668274l2.1557922 0.5056915l0.44181824 -1.5197144l0.19161987 -1.5223541l0.25283813 -2.2170258l0.19163513 -2.6002655l-0.38059998 -3.16716l-0.95280457 -3.8671265l-0.95014954 -2.5976028l-1.5835876 -2.7892303l-2.2170105 -3.042076l-2.725357 -3.0420685l-3.6781616 -2.5337296l-3.1032867 -1.5223694z" fill-rule="evenodd"/><path fill="#ff0000" d="m189.45993 128.1974l0 0c0 -2.0953674 1.6986237 -3.7939987 3.793991 -3.7939987l0 0c1.0062256 0 1.9712524 0.39972687 2.6827545 1.1112366c0.71151733 0.7115097 1.1112366 1.6765289 1.1112366 2.6827621l0 0c0 2.0953522 -1.6986237 3.7939758 -3.793991 3.7939758l0 0c-2.0953674 0 -3.793991 -1.6986237 -3.793991 -3.7939758z" fill-rule="evenodd"/><path fill="#990000" d="m192.75287 128.21265l0 0c0 -0.8425827 0.68304443 -1.5256271 1.5256195 -1.5256271l0 0c0.4046173 0 0.7926636 0.16073608 1.0787811 0.446846c0.2861023 0.28610992 0.44683838 0.6741562 0.44683838 1.0787811l0 0c0 0.8425751 -0.68304443 1.5256195 -1.5256195 1.5256195l0 0c-0.8425751 0 -1.5256195 -0.68304443 -1.5256195 -1.5256195z" fill-rule="evenodd"/><path fill="#000000" d="m176.06967 128.21265l0 0c0 -0.8425827 0.68304443 -1.5256271 1.5256195 -1.5256271l0 0c0.4046173 0 0.7926636 0.16073608 1.0787811 0.446846c0.2861023 0.28610992 0.44683838 0.6741562 0.44683838 1.0787811l0 0c0 0.8425751 -0.68304443 1.5256195 -1.5256195 1.5256195l0 0c-0.8425751 0 -1.5256195 -0.68304443 -1.5256195 -1.5256195z" fill-rule="evenodd"/><path fill="#f3f3f3" d="m704.22906 48.30514l0 152.80603l-21.385864 0l0 -152.80603z" fill-rule="evenodd"/><path fill="#f3f3f3" d="m703.3658 48.337208l57.7323 -0.032081604l0 21.783604l-57.7323 0.032081604z" fill-rule="evenodd"/><path fill="#f3f3f3" d="m761.7128 48.3053l0.03149414 62.11054l-21.385803 0l-0.03149414 -62.11054z" fill-rule="evenodd"/><path fill="#f3f3f3" d="m703.36554 109.697365l58.393738 -0.032081604l0 21.7836l-58.393738 0.032089233z" fill-rule="evenodd"/><path fill="#f3f3f3" d="m703.5037 130.56862l21.141235 -0.12719727l38.953247 68.75037l-21.141174 0.12719727z" fill-rule="evenodd"/><path fill="#f3f3f3" d="m932.8824 47.740334l0 152.97107l-21.385803 0l0 -152.97107z" fill-rule="evenodd"/><path fill="#f3f3f3" d="m932.0204 47.772434l57.7323 -0.032115936l0 21.807129l-57.7323 0.03211212z" fill-rule="evenodd"/><path fill="#f3f3f3" d="m932.02026 113.338356l46.582703 -0.03211212l0 21.807129l-46.582703 0.032104492z" fill-rule="evenodd"/><path fill="#f3f3f3" d="m931.15826 178.99524l57.7323 -0.032104492l0 21.807129l-57.7323 0.032104492z" fill-rule="evenodd"/><path fill="#f3f3f3" d="m1027.778 47.440323l0 152.80605l-21.385803 0l0 -152.80605z" fill-rule="evenodd"/><path fill="#f3f3f3" d="m1026.9147 47.47239l57.7323 -0.032081604l0 21.7836l-57.7323 0.032081604z" fill-rule="evenodd"/><path fill="#f3f3f3" d="m1085.2617 47.44048l0.03149414 62.11054l-21.385742 0l-0.03149414 -62.11054z" fill-rule="evenodd"/><path fill="#f3f3f3" d="m1026.9144 108.83254l58.3938 -0.032081604l0 21.7836l-58.3938 0.032089233z" fill-rule="evenodd"/><path fill="#f3f3f3" d="m1027.0526 129.7038l21.141235 -0.12719727l38.953247 68.75037l-21.141113 0.12719727z" fill-rule="evenodd"/><path fill="#f3f3f3" d="m802.4477 48.09164l0 152.71603l-21.102417 0l0 -152.71603z" fill-rule="evenodd"/><path fill="#f3f3f3" d="m801.7495 47.747135l-0.09051514 36.05309l35.996033 34.613747l0.09051514 -36.053085z" fill-rule="evenodd"/><path fill="#f3f3f3" d="m872.64636 48.09164l0 152.71603l21.102356 0l0 -152.71603z" fill-rule="evenodd"/><path fill="#f3f3f3" d="m873.3453 47.747135l0.78723145 35.383152l-36.692688 35.283684l-0.78723145 -35.38315z" fill-rule="evenodd"/><path fill="#f3f3f3" d="m398.2789 47.750813l0 153.00787l-21.385834 0l0 -153.00787z" fill-rule="evenodd"/><path fill="#f3f3f3" d="m435.25705 69.742165l19.590576 0l0 109.29134l-19.590576 0z" fill-rule="evenodd"/><path fill="#f3f3f3" d="m454.84766 69.6494l-56.724396 -21.82677l-7.685028 18.141727l56.724396 21.826775z" fill-rule="evenodd"/><path fill="#f3f3f3" d="m454.84766 178.97902l-56.724396 21.826782l-7.685028 -18.141739l56.724396 -21.826767z" fill-rule="evenodd"/></g></svg>