<svg version="1.1" width="1920" height="1088" viewBox="0.0 0.0 1920.0 1088.0" fill="none" stroke="none" stroke-linecap="square" stroke-miterlimit="10" xmlns:xlink="http://www.w3.org/1999/xlink" xmlns="http://www.w3.org/2000/svg"><clipPath id="p.0"><path d="m0 0l1920.0 0l0 1088.0l-1920.0 0l0 -1088.0z" clip-rule="nonzero"/></clipPath><g clip-path="url(#p.0)"><path fill="#000000" fill-opacity="0.0" d="m0 0l1920.0 0l0 1088.0l-1920.0 0z" fill-rule="evenodd"/><path fill="#222222" d="m-8.173228 -6.3622046l1936.3464 0l0 1102.8346l-1936.3464 0z" fill-rule="evenodd"/><path fill="#fff2cc" d="m89.073494 77.54855l14.843948 -3.1875458l3.1875458 -14.843948l3.1875458 14.843948l14.843948 3.1875458l-14.843948 3.1875534l-3.1875458 14.843948l-3.1875458 -14.843948z" fill-rule="evenodd"/><path fill="#fff2cc" d="m389.27036 132.60367l22.661316 -4.866226l4.8662415 -22.661324l4.866211 22.661324l22.661346 4.866226l-22.661346 4.8662415l-4.866211 22.661331l-4.8662415 -22.661331z" fill-rule="evenodd"/><path fill="#fff2cc" d="m1734.5931 486.92914l14.843994 -3.187561l3.1875 -14.843933l3.187622 14.843933l14.843872 3.187561l-14.843872 3.1875305l-3.187622 14.843964l-3.1875 -14.843964z" fill-rule="evenodd"/><path fill="#fff2cc" d="m370.00525 351.57742l14.843933 -3.1875305l3.187561 -14.843964l3.187561 14.843964l14.843933 3.1875305l-14.843933 3.187561l-3.187561 14.843933l-3.187561 -14.843933z" fill-rule="evenodd"/><path fill="#fff2cc" d="m353.20734 685.89764l14.843964 -3.187561l3.1875305 -14.843933l3.187561 14.843933l14.843964 3.187561l-14.843964 3.187561l-3.187561 14.843933l-3.1875305 -14.843933z" fill-rule="evenodd"/><path fill="#fff2cc" d="m543.2598 486.92914l14.843994 -3.187561l3.1875 -14.843933l3.187561 14.843933l14.843933 3.187561l-14.843933 3.1875305l-3.187561 14.843964l-3.1875 -14.843964z" fill-rule="evenodd"/><path fill="#fff2cc" d="m156.021 293.93964l14.843948 -3.187561l3.1875458 -14.843933l3.1875458 14.843933l14.843948 3.187561l-14.843948 3.1875305l-3.1875458 14.843964l-3.1875458 -14.843964z" fill-rule="evenodd"/><path fill="#fff2cc" d="m1024.1732 147.41208l14.843994 -3.187561l3.1875 -14.843933l3.1875 14.843933l14.843994 3.187561l-14.843994 3.1875458l-3.1875 14.843948l-3.1875 -14.843948z" fill-rule="evenodd"/><path fill="#fff2cc" d="m813.56696 41.485565l14.843933 -3.1875496l3.187561 -14.843946l3.1875 14.843946l14.843994 3.1875496l-14.843994 3.1875458l-3.1875 14.843948l-3.187561 -14.843948z" fill-rule="evenodd"/><path fill="#fff2cc" d="m1052.3517 403.44357l14.843994 -3.187561l3.1875 -14.843933l3.187622 14.843933l14.843872 3.187561l-14.843872 3.1875305l-3.187622 14.843964l-3.1875 -14.843964z" fill-rule="evenodd"/><path fill="#fff2cc" d="m1573.1155 351.57742l14.843994 -3.1875305l3.1875 -14.843964l3.1875 14.843964l14.843994 3.1875305l-14.843994 3.187561l-3.1875 14.843933l-3.1875 -14.843933z" fill-rule="evenodd"/><path fill="#fff2cc" d="m146.52493 797.5958l22.661331 -4.866272l4.866226 -22.661316l4.8662415 22.661316l22.661316 4.866272l-22.661316 4.866211l-4.8662415 22.661316l-4.866226 -22.661316z" fill-rule="evenodd"/><path fill="#fff2cc" d="m1407.4672 653.8819l22.661377 -4.866211l4.866211 -22.661377l4.866211 22.661377l22.661377 4.866211l-22.661377 4.866211l-4.866211 22.661316l-4.866211 -22.661316z" fill-rule="evenodd"/><path fill="#fff2cc" d="m1209.1707 41.485565l22.661255 -4.86623l4.866211 -22.661331l4.866333 22.661331l22.661255 4.86623l-22.661255 4.86623l-4.866333 22.661327l-4.866211 -22.661327z" fill-rule="evenodd"/><path fill="#fff2cc" d="m1687.5223 108.7769l32.734497 -7.0293045l7.029297 -32.734474l7.029297 32.734474l32.734497 7.0293045l-32.734497 7.029312l-7.029297 32.734467l-7.029297 -32.734467z" fill-rule="evenodd"/><path fill="#fff2cc" d="m878.105 852.65094l22.661316 -4.866272l4.866272 -22.661316l4.866211 22.661316l22.661316 4.866272l-22.661316 4.866211l-4.866211 22.661316l-4.866272 -22.661316z" fill-rule="evenodd"/><path fill="#fff2cc" d="m995.3228 653.4409l11.875183 -2.5499878l2.5500488 -11.875183l2.5500488 11.875183l11.875122 2.5499878l-11.875122 2.5500488l-2.5500488 11.875183l-2.5500488 -11.875183z" fill-rule="evenodd"/><path fill="#fff2cc" d="m755.02625 473.41733l11.875183 -2.5500488l2.5499878 -11.875153l2.5500488 11.875153l11.875183 2.5500488l-11.875183 2.5500488l-2.5500488 11.875153l-2.5499878 -11.875153z" fill-rule="evenodd"/><path fill="#fff2cc" d="m579.3228 810.6982l11.875183 -2.5500488l2.5500488 -11.875183l2.5500488 11.875183l11.875122 2.5500488l-11.875122 2.5500488l-2.5500488 11.875122l-2.5500488 -11.875122z" fill-rule="evenodd"/><path fill="#fff2cc" d="m1180.3202 959.5932l11.875122 -2.5500488l2.5500488 -11.875183l2.5500488 11.875183l11.875244 2.5500488l-11.875244 2.5499878l-2.5500488 11.875183l-2.5500488 -11.875183z" fill-rule="evenodd"/><path fill="#fff2cc" d="m1738.1995 865.7533l11.875122 -2.5500488l2.5500488 -11.875183l2.5500488 11.875183l11.875244 2.5500488l-11.875244 2.5500488l-2.5500488 11.875122l-2.5500488 -11.875122z" fill-rule="evenodd"/><path fill="#fff2cc" d="m1812.4384 1001.54596l22.661255 -4.866272l4.866211 -22.661316l4.866333 22.661316l22.661255 4.866272l-22.661255 4.866211l-4.866333 22.661316l-4.866211 -22.661316z" fill-rule="evenodd"/><path fill="#fff2cc" d="m290.4777 976.2257l32.734467 -7.029297l7.029297 -32.734497l7.0293274 32.734497l32.734467 7.029297l-32.734467 7.029297l-7.0293274 32.734497l-7.029297 -32.734497z" fill-rule="evenodd"/><path fill="#fff2cc" d="m50.120735 412.93964l22.661331 -4.8662415l4.866226 -22.661316l4.866234 22.661316l22.661324 4.8662415l-22.661324 4.8662415l-4.866234 22.661316l-4.866226 -22.661316z" fill-rule="evenodd"/><path fill="#fff2cc" d="m8.858268 611.48816l22.661327 -4.866211l4.86623 -22.661316l4.86623 22.661316l22.661331 4.866211l-22.661331 4.866272l-4.86623 22.661316l-4.86623 -22.661316z" fill-rule="evenodd"/><path fill="#fff2cc" d="m50.120735 156.90814l22.661331 -4.8662415l4.866226 -22.661316l4.866234 22.661316l22.661324 4.8662415l-22.661324 4.866226l-4.866234 22.661331l-4.866226 -22.661331z" fill-rule="evenodd"/><path fill="#fff2cc" d="m63.2231 1001.54596l11.87516 -2.5500488l2.5500336 -11.875183l2.5500412 11.875183l11.87516 2.5500488l-11.87516 2.5499878l-2.5500412 11.875183l-2.5500336 -11.875183z" fill-rule="evenodd"/><path fill="#fff2cc" d="m1249.2546 473.41733l32.734375 -7.0293274l7.029419 -32.734467l7.029297 32.734467l32.734375 7.0293274l-32.734375 7.029297l-7.029297 32.734467l-7.029419 -32.734467z" fill-rule="evenodd"/><path fill="#fff2cc" d="m1787.9658 721.1732l32.734497 -7.029297l7.029297 -32.734497l7.029297 32.734497l32.734497 7.029297l-32.734497 7.029297l-7.029297 32.734497l-7.029297 -32.734497z" fill-rule="evenodd"/><path fill="#fff2cc" d="m579.3228 147.41208l32.734497 -7.029312l7.029297 -32.734474l7.029297 32.734474l32.734497 7.029312l-32.734497 7.029297l-7.029297 32.73448l-7.029297 -32.73448z" fill-rule="evenodd"/><path fill="#fff2cc" d="m1453.1602 917.64044l22.661255 -4.866272l4.866211 -22.661316l4.866333 22.661316l22.661255 4.866272l-22.661255 4.866211l-4.866333 22.661316l-4.866211 -22.661316z" fill-rule="evenodd"/><path fill="#fff2cc" d="m1382.2047 187.6588l22.661377 -4.8662415l4.866211 -22.661316l4.866211 22.661316l22.661377 4.8662415l-22.661377 4.866226l-4.866211 22.661331l-4.866211 -22.661331z" fill-rule="evenodd"/><path fill="#fff2cc" d="m1812.4384 303.4357l22.661255 -4.8662415l4.866211 -22.661316l4.866333 22.661316l22.661255 4.8662415l-22.661255 4.8662415l-4.866333 22.661316l-4.866211 -22.661316z" fill-rule="evenodd"/><path fill="#fff2cc" d="m751.4199 303.4357l14.843994 -3.187561l3.1875 -14.843933l3.187561 14.843933l14.843933 3.187561l-14.843933 3.1875305l-3.187561 14.843964l-3.1875 -14.843964z" fill-rule="evenodd"/><path fill="#fff2cc" d="m1144.2572 267.3727l14.843994 -3.187561l3.1875 -14.843948l3.187622 14.843948l14.843872 3.187561l-14.843872 3.1875305l-3.187622 14.843964l-3.1875 -14.843964z" fill-rule="evenodd"/></g></svg>