<svg version="1.1" viewBox="0.0 0.0 576.0 128.0" fill="none" stroke="none" stroke-linecap="square" stroke-miterlimit="10" xmlns:xlink="http://www.w3.org/1999/xlink" xmlns="http://www.w3.org/2000/svg"><clipPath id="p.0"><path d="m0 0l576.0 0l0 128.0l-576.0 0l0 -128.0z" clip-rule="nonzero"/></clipPath><g clip-path="url(#p.0)"><path fill="#000000" fill-opacity="0.0" d="m0 0l576.0 0l0 128.0l-576.0 0z" fill-rule="evenodd"/><path fill="#ffffff" fill-opacity="0.3333" d="m0 21.353445l0 0c0 -11.7823105 9.55145 -21.33376 21.33376 -21.33376l533.3325 0c5.65802 0 11.084351 2.2476575 15.085205 6.248513c4.0008545 4.000856 6.248535 9.427181 6.248535 15.085247l0 85.33248c0 11.7823105 -9.551453 21.333755 -21.33374 21.333755l-533.3325 0c-11.78231 0 -21.33376 -9.551445 -21.33376 -21.333755z" fill-rule="evenodd"/><path fill="#ffffff" d="m148.56836 71.4828q0 6.015625 -5.109375 9.78125q-5.09375 3.75 -13.84375 3.75q-5.0625 0 -8.828125 -0.890625q-3.75 -0.890625 -7.03125 -2.25l0 -9.765625l1.140625 0q3.265625 2.59375 7.296875 4.0q4.03125 1.390625 7.75 1.390625q0.953125 0 2.515625 -0.15625q1.5625 -0.171875 2.546875 -0.5625q1.203125 -0.484375 1.96875 -1.21875q0.78125 -0.75 0.78125 -2.1875q0 -1.34375 -1.140625 -2.3125q-1.125 -0.96875 -3.3125 -1.5q-2.296875 -0.546875 -4.859375 -1.015625q-2.546875 -0.484375 -4.796875 -1.21875q-5.140625 -1.671875 -7.390625 -4.531246q-2.25 -2.859375 -2.25 -7.09375q0 -5.6875 5.09375 -9.28125q5.09375 -3.59375 13.109375 -3.59375q4.015625 0 7.9375 0.78125q3.9375 0.78125 6.796875 1.953125l0 9.375l-1.109375 0q-2.46875 -1.96875 -6.046875 -3.296875q-3.5625 -1.328125 -7.28125 -1.328125q-1.3125 0 -2.609375 0.1875q-1.296875 0.171875 -2.5 0.671875q-1.0625 0.40625 -1.828125 1.25q-0.765625 0.828125 -0.765625 1.890625q0 1.609375 1.21875 2.46875q1.234375 0.859375 4.65625 1.578125q2.25 0.46875 4.3125 0.90625q2.0625 0.4375 4.4375 1.203125q4.671875 1.53125 6.90625 4.171871q2.234375 2.625 2.234375 6.84375zm26.269531 12.515625q-1.578125 0.421875 -3.359375 0.65625q-1.78125 0.234375 -4.34375 0.234375q-5.75 0 -8.5625 -2.328125q-2.796875 -2.328125 -2.796875 -7.96875l0 -14.343746l-4.046875 0l0 -6.671875l4.046875 0l0 -8.78125l9.84375 0l0 8.78125l9.21875 0l0 6.671875l-9.21875 0l0 10.874996q0 1.609375 0.03125 2.8125q0.03125 1.203125 0.4375 2.171875q0.390625 0.953125 1.359375 1.515625q0.96875 0.5625 2.828125 0.5625q0.765625 0 2.0 -0.328125q1.25 -0.328125 1.75 -0.609375l0.8125 0l0 6.75zm24.480469 -7.734375l0 -6.390625q-2.0 0.15625 -4.328125 0.453125q-2.328125 0.28125 -3.53125 0.65625q-1.46875 0.46875 -2.25 1.359375q-0.78125 0.890625 -0.78125 2.34375q0 0.953125 0.15625 1.5625q0.171875 0.59375 0.828125 1.140625q0.625 0.546875 1.5 0.8125q0.875 0.25 2.734375 0.25q1.484375 0 3.0 -0.59375q1.515625 -0.609375 2.671875 -1.59375zm0 4.765625q-0.796875 0.59375 -1.984375 1.453125q-1.171875 0.84375 -2.203125 1.328125q-1.453125 0.65625 -3.015625 0.96875q-1.546875 0.328125 -3.40625 0.328125q-4.375 0 -7.328125 -2.703125q-2.953125 -2.71875 -2.953125 -6.9375q0 -3.359375 1.5 -5.484375q1.5 -2.140625 4.265625 -3.375q2.734375 -1.21875 6.78125 -1.734375q4.046875 -0.53125 8.390625 -0.78125l0 -0.15624619q0 -2.546875 -2.078125 -3.515625q-2.078125 -0.96875 -6.125 -0.96875q-2.4375 0 -5.203125 0.859375q-2.75 0.859375 -3.953125 1.328125l-0.90625 0l0 -7.40625q1.5625 -0.421875 5.078125 -0.96875q3.515625 -0.5625 7.03125 -0.5625q8.40625 0 12.125 2.578125q3.734375 2.578125 3.734375 8.109375l0 20.890621l-9.75 0l0 -3.25zm41.0625 -18.078121l-0.875 0q-0.625 -0.21875 -2.03125 -0.328125q-1.390625 -0.109375 -2.3125 -0.109375q-2.109375 0 -3.71875 0.28125q-1.609375 0.265625 -3.46875 0.921875l0 20.562496l-9.84375 0l0 -30.703121l9.84375 0l0 4.5q3.25 -2.78125 5.65625 -3.6875q2.40625 -0.921875 4.421875 -0.921875q0.53125 0 1.1875 0.03125q0.65625 0.015625 1.140625 0.078125l0 9.375zm25.210938 21.046871q-1.578125 0.421875 -3.359375 0.65625q-1.78125 0.234375 -4.34375 0.234375q-5.75 0 -8.5625 -2.328125q-2.796875 -2.328125 -2.796875 -7.96875l0 -14.343746l-4.046875 0l0 -6.671875l4.046875 0l0 -8.78125l9.84375 0l0 8.78125l9.21875 0l0 6.671875l-9.21875 0l0 10.874996q0 1.609375 0.03125 2.8125q0.03125 1.203125 0.4375 2.171875q0.390625 0.953125 1.359375 1.515625q0.96875 0.5625 2.828125 0.5625q0.765625 0 2.0 -0.328125q1.25 -0.328125 1.75 -0.609375l0.8125 0l0 6.75zm61.57422 -2.046875q-2.734375 1.0625 -7.25 2.125q-4.5 1.046875 -8.984375 1.046875q-10.390625 0 -16.28125 -5.640625q-5.875 -5.65625 -5.875 -15.609371q0 -9.484375 5.9375 -15.296875q5.9375 -5.8125 16.546875 -5.8125q4.015625 0 7.65625 0.734375q3.640625 0.71875 8.09375 2.875l0 9.546875l-1.171875 0q-0.765625 -0.578125 -2.25 -1.625q-1.46875 -1.046875 -2.84375 -1.796875q-1.578125 -0.875 -3.703125 -1.5q-2.125 -0.625 -4.5 -0.625q-2.78125 0 -5.0625 0.828125q-2.265625 0.8125 -4.0625 2.5q-1.734375 1.640625 -2.734375 4.171875q-0.984375 2.53125 -0.984375 5.84375q0 6.749996 3.578125 10.343746q3.578125 3.578125 10.578125 3.578125q0.609375 0 1.328125 -0.03125q0.71875 -0.03125 1.328125 -0.078125l0 -7.984375l-8.125 0l0 -7.687496l18.78125 0l0 20.093746zm27.464844 -5.6875l0 -6.390625q-2.0 0.15625 -4.328125 0.453125q-2.328125 0.28125 -3.53125 0.65625q-1.46875 0.46875 -2.25 1.359375q-0.78125 0.890625 -0.78125 2.34375q0 0.953125 0.15625 1.5625q0.171875 0.59375 0.828125 1.140625q0.625 0.546875 1.5 0.8125q0.875 0.25 2.734375 0.25q1.484375 0 3.0 -0.59375q1.515625 -0.609375 2.671875 -1.59375zm0 4.765625q-0.796875 0.59375 -1.984375 1.453125q-1.171875 0.84375 -2.203125 1.328125q-1.453125 0.65625 -3.015625 0.96875q-1.546875 0.328125 -3.40625 0.328125q-4.375 0 -7.328125 -2.703125q-2.953125 -2.71875 -2.953125 -6.9375q0 -3.359375 1.5 -5.484375q1.5 -2.140625 4.265625 -3.375q2.734375 -1.21875 6.78125 -1.734375q4.046875 -0.53125 8.390625 -0.78125l0 -0.15624619q0 -2.546875 -2.078125 -3.515625q-2.078125 -0.96875 -6.125 -0.96875q-2.4375 0 -5.203125 0.859375q-2.75 0.859375 -3.953125 1.328125l-0.90625 0l0 -7.40625q1.5625 -0.421875 5.078125 -0.96875q3.515625 -0.5625 7.03125 -0.5625q8.40625 0 12.125 2.578125q3.734375 2.578125 3.734375 8.109375l0 20.890621l-9.75 0l0 -3.25zm48.828125 -18.515621l0 21.765621l-9.890625 0l0 -15.34375q0 -2.234375 -0.109375 -3.8125q-0.109375 -1.5781212 -0.609375 -2.5624962q-0.484375 -0.984375 -1.484375 -1.421875q-1.0 -0.453125 -2.8125 -0.453125q-1.4375 0 -2.8125 0.59375q-1.359375 0.578125 -2.453125 1.234375l0 21.765621l-9.84375 0l0 -30.703121l9.84375 0l0 3.390625q2.53125 -2.0 4.859375 -3.125q2.328125 -1.125 5.140625 -1.125q3.03125 0 5.359375 1.359375q2.328125 1.359375 3.640625 3.984375q2.953125 -2.5 5.734375 -3.921875q2.796875 -1.421875 5.46875 -1.421875q4.984375 0 7.5625 2.984375q2.59375 2.984375 2.59375 8.593746l0 19.984375l-9.90625 0l0 -15.34375q0 -2.265625 -0.09375 -3.828125q-0.09375 -1.5624962 -0.59375 -2.5468712q-0.453125 -0.984375 -1.46875 -1.421875q-1.015625 -0.453125 -2.84375 -0.453125q-1.234375 0 -2.40625 0.421875q-1.171875 0.421875 -2.875 1.40625zm59.472656 8.234371l-22.53125 0q0.21875 3.609375 2.75 5.53125q2.53125 1.90625 7.453125 1.90625q3.109375 0 6.03125 -1.125q2.9375 -1.125 4.625 -2.40625l1.09375 0l0 7.90625q-3.328125 1.328125 -6.28125 1.9375q-2.953125 0.609375 -6.53125 0.609375q-9.25 0 -14.171875 -4.15625q-4.921875 -4.171875 -4.921875 -11.84375q0 -7.609371 4.65625 -12.046871q4.671875 -4.453125 12.796875 -4.453125q7.484375 0 11.25 3.796875q3.78125 3.78125 3.78125 10.890621l0 3.453125zm-9.78125 -5.78125q-0.09375 -3.0781212 -1.546875 -4.640621q-1.4375 -1.5625 -4.5 -1.5625q-2.84375 0 -4.6875 1.484375q-1.828125 1.46875 -2.046875 4.718746l12.78125 0z" fill-rule="nonzero"/></g></svg>