<svg version="1.1" width="64" height="64" viewBox="0.0 0.0 64.0 64.0" fill="none" stroke="none" stroke-linecap="square" stroke-miterlimit="10" xmlns:xlink="http://www.w3.org/1999/xlink" xmlns="http://www.w3.org/2000/svg"><clipPath id="p.0"><path d="m0 0l64.0 0l0 64.0l-64.0 0l0 -64.0z" clip-rule="nonzero"/></clipPath><g clip-path="url(#p.0)"><path fill="#000000" fill-opacity="0.0" d="m0 0l64.0 0l0 64.0l-64.0 0z" fill-rule="evenodd"/><path fill="#ffffff" fill-opacity="0.3961" d="m0 10.769242l0 0c0 -5.8911552 4.775725 -10.66688 10.66688 -10.66688l42.666237 0l0 0c2.829033 0 5.542198 1.1238288 7.5426254 3.1242568c2.0004272 2.000428 3.1242561 4.7135906 3.1242561 7.5426235l0 42.66624c0 5.8911552 -4.7757263 10.666882 -10.666882 10.666882l-42.666237 0c-5.891155 0 -10.66688 -4.7757263 -10.66688 -10.666882z" fill-rule="evenodd"/><path fill="#ffffff" fill-opacity="0.3961" d="m15.984252 13.566929l32.031494 18.535435l-32.031494 18.53543z" fill-rule="evenodd"/></g></svg>