<svg version="1.1" width="128" height="128" viewBox="0.0 0.0 128.0 128.0" fill="none" stroke="none" stroke-linecap="square" stroke-miterlimit="10" xmlns:xlink="http://www.w3.org/1999/xlink" xmlns="http://www.w3.org/2000/svg"><clipPath id="p.0"><path d="m0 0l128.0 0l0 128.0l-128.0 0l0 -128.0z" clip-rule="nonzero"/></clipPath><g clip-path="url(#p.0)"><path fill="#000000" fill-opacity="0.0" d="m0 0l128.0 0l0 128.0l-128.0 0z" fill-rule="evenodd"/><defs><linearGradient id="p.1" gradientUnits="userSpaceOnUse" gradientTransform="matrix(11.313708498984761 0.0 0.0 11.313708498984761 0.0 0.0)" spreadMethod="pad" x1="2.31990413775114E-4" y1="11.313779183563957" x2="11.313940489398535" y2="11.313779183563957"><stop offset="0.0" stop-color="#666666"/><stop offset="0.5" stop-color="#999999"/><stop offset="1.0" stop-color="#666666"/></linearGradient></defs><path fill="url(#p.1)" d="m0.002624672 83.51972l128.0 0l0 44.48107l-128.0 0z" fill-rule="evenodd"/><defs><radialGradient id="p.2" gradientUnits="userSpaceOnUse" gradientTransform="matrix(8.012853834096878 0.0 0.0 8.012853834096878 0.0 0.0)" spreadMethod="pad" cx="7.9874943430975085" cy="10.385556365859534" fx="7.9874943430975085" fy="10.385556365859534" r="8.012853622436523"><stop offset="0.0" stop-color="#abf0ff"/><stop offset="1.0" stop-color="#44cfed"/></radialGradient></defs><path fill="url(#p.2)" d="m0.002624672 83.21795l0 0c0 -1.3624115 6.742838 -2.6690216 18.745167 -3.632393c12.002327 -0.9633713 28.28098 -1.5045853 45.254833 -1.5045853l0 0c35.346222 0 64.0 2.2999039 64.0 5.136978l0 0c0 2.8370667 -28.653778 5.1369705 -64.0 5.1369705l0 0c-35.346222 0 -64.0 -2.2999039 -64.0 -5.1369705z" fill-rule="evenodd"/><path fill="#5cb535" d="m64.0 101.64968l7.5786667 7.5786667l-7.5786667 7.5786667l-7.5786667 -7.5786667z" fill-rule="evenodd"/><path fill="#7cc35d" d="m64.0 96.125984l13.102364 13.102364l-5.523697 0l-7.5786667 -7.5786667z" fill-rule="evenodd"/><path fill="#49902a" d="m50.897636 109.22835l5.523697 0l7.5786667 7.5786667l0 5.523697z" fill-rule="evenodd"/><path fill="#9dd285" d="m64.0 96.125984l0 5.523697l-7.5786667 7.5786667l-5.523697 0z" fill-rule="evenodd"/><path fill="#376c1f" d="m77.10236 109.22835l-13.102364 13.102364l0 -5.523697l7.5786667 -7.5786667z" fill-rule="evenodd"/><path fill="#000000" fill-opacity="0.0" d="m64.0 96.125984l13.102364 13.102364l-13.102364 13.102364l-13.102364 -13.102364zm0 5.523697l7.5786667 7.5786667l-7.5786667 7.5786667l-7.5786667 -7.5786667zm0 -5.523697l0 5.523697m-13.102364 7.5786667l5.523697 0m20.68103 0l-5.523697 0m-7.5786667 13.102364l0 -5.523697" fill-rule="evenodd"/><path fill="#000000" fill-opacity="0.0" d="m72.98216 100.25952l7.845543 -7.845543" fill-rule="evenodd"/><path stroke="#93c47d" stroke-width="3.0" stroke-linejoin="round" stroke-linecap="butt" d="m72.98216 100.25952l7.845543 -7.845543" fill-rule="evenodd"/><path fill="#000000" fill-opacity="0.0" d="m47.180843 126.060844l7.845543 -7.845543" fill-rule="evenodd"/><path stroke="#93c47d" stroke-width="3.0" stroke-linejoin="round" stroke-linecap="butt" d="m47.180843 126.060844l7.845543 -7.845543" fill-rule="evenodd"/><path fill="#000000" fill-opacity="0.0" d="m80.827705 126.060844l-7.845543 -7.845543" fill-rule="evenodd"/><path stroke="#93c47d" stroke-width="3.0" stroke-linejoin="round" stroke-linecap="butt" d="m80.827705 126.060844l-7.845543 -7.845543" fill-rule="evenodd"/><path fill="#000000" fill-opacity="0.0" d="m55.026386 100.25952l-7.845543 -7.845543" fill-rule="evenodd"/><path stroke="#93c47d" stroke-width="3.0" stroke-linejoin="round" stroke-linecap="butt" d="m55.026386 100.25952l-7.845543 -7.845543" fill-rule="evenodd"/></g></svg>