<svg version="1.1" width="128" height="128" viewBox="0.0 0.0 128.0 128.0" fill="none" stroke="none" stroke-linecap="square" stroke-miterlimit="10" xmlns:xlink="http://www.w3.org/1999/xlink" xmlns="http://www.w3.org/2000/svg"><clipPath id="p.0"><path d="m0 0l128.0 0l0 128.0l-128.0 0l0 -128.0z" clip-rule="nonzero"/></clipPath><g clip-path="url(#p.0)"><path fill="#000000" fill-opacity="0.0" d="m0 0l128.0 0l0 128.0l-128.0 0z" fill-rule="evenodd"/><defs><linearGradient id="p.1" gradientUnits="userSpaceOnUse" gradientTransform="matrix(11.313708498984761 0.0 0.0 11.313708498984761 0.0 0.0)" spreadMethod="pad" x1="0.0" y1="11.314836733614252" x2="11.31370849898476" y2="11.314836733614252"><stop offset="0.0" stop-color="#666666"/><stop offset="0.5" stop-color="#999999"/><stop offset="1.0" stop-color="#666666"/></linearGradient></defs><path fill="url(#p.1)" d="m0 83.67406l128.0 0l0 44.338715l-128.0 0z" fill-rule="evenodd"/><defs><linearGradient id="p.2" gradientUnits="userSpaceOnUse" gradientTransform="matrix(11.313708498984761 0.0 0.0 11.313708498984761 0.0 0.0)" spreadMethod="pad" x1="-1.3719677083835026E-15" y1="7.821818695856019" x2="11.31370849898476" y2="7.821818695856019"><stop offset="0.0" stop-color="#999999"/><stop offset="0.5" stop-color="#d9d9d9"/><stop offset="1.0" stop-color="#999999"/></linearGradient></defs><path fill="url(#p.2)" d="m0 83.373245l0 0c-3.1044086E-14 -1.3580551 6.742838 -2.6604843 18.745167 -3.6207657c12.002327 -0.960289 28.28098 -1.4997711 45.254833 -1.4997711l0 0c35.346222 0 64.0 2.2925415 64.0 5.120537l0 0c0 2.8279877 -28.653778 5.120529 -64.0 5.120529l0 0c-35.346222 0 -64.0 -2.2925415 -64.0 -5.120529z" fill-rule="evenodd"/><path fill="#ff9900" d="m64.0 101.64968l7.5786667 7.5786667l-7.5786667 7.5786667l-7.5786667 -7.5786667z" fill-rule="evenodd"/><path fill="#ffad33" d="m64.0 96.125984l13.102364 13.102364l-5.523697 0l-7.5786667 -7.5786667z" fill-rule="evenodd"/><path fill="#cb7a00" d="m50.897636 109.22835l5.523697 0l7.5786667 7.5786667l0 5.523697z" fill-rule="evenodd"/><path fill="#ffc166" d="m64.0 96.125984l0 5.523697l-7.5786667 7.5786667l-5.523697 0z" fill-rule="evenodd"/><path fill="#985b00" d="m77.10236 109.22835l-13.102364 13.102364l0 -5.523697l7.5786667 -7.5786667z" fill-rule="evenodd"/><path fill="#000000" fill-opacity="0.0" d="m64.0 96.125984l13.102364 13.102364l-13.102364 13.102364l-13.102364 -13.102364zm0 5.523697l7.5786667 7.5786667l-7.5786667 7.5786667l-7.5786667 -7.5786667zm0 -5.523697l0 5.523697m-13.102364 7.5786667l5.523697 0m20.68103 0l-5.523697 0m-7.5786667 13.102364l0 -5.523697" fill-rule="evenodd"/><path fill="#000000" fill-opacity="0.0" d="m72.98216 100.25952l7.845543 -7.845543" fill-rule="evenodd"/><path stroke="#b45f06" stroke-width="3.0" stroke-linejoin="round" stroke-linecap="butt" d="m72.98216 100.25952l7.845543 -7.845543" fill-rule="evenodd"/><path fill="#000000" fill-opacity="0.0" d="m47.180843 126.060844l7.845543 -7.845543" fill-rule="evenodd"/><path stroke="#b45f06" stroke-width="3.0" stroke-linejoin="round" stroke-linecap="butt" d="m47.180843 126.060844l7.845543 -7.845543" fill-rule="evenodd"/><path fill="#000000" fill-opacity="0.0" d="m80.827705 126.060844l-7.845543 -7.845543" fill-rule="evenodd"/><path stroke="#b45f06" stroke-width="3.0" stroke-linejoin="round" stroke-linecap="butt" d="m80.827705 126.060844l-7.845543 -7.845543" fill-rule="evenodd"/><path fill="#000000" fill-opacity="0.0" d="m55.026386 100.25952l-7.845543 -7.845543" fill-rule="evenodd"/><path stroke="#b45f06" stroke-width="3.0" stroke-linejoin="round" stroke-linecap="butt" d="m55.026386 100.25952l-7.845543 -7.845543" fill-rule="evenodd"/></g></svg>