<svg version="1.1" width="128" height="128" viewBox="0.0 0.0 128.0 128.0" fill="none" stroke="none" stroke-linecap="square" stroke-miterlimit="10" xmlns:xlink="http://www.w3.org/1999/xlink" xmlns="http://www.w3.org/2000/svg"><clipPath id="p.0"><path d="m0 0l128.0 0l0 128.0l-128.0 0l0 -128.0z" clip-rule="nonzero"/></clipPath><g clip-path="url(#p.0)"><path fill="#000000" fill-opacity="0.0" d="m0 0l128.0 0l0 128.0l-128.0 0z" fill-rule="evenodd"/><defs><radialGradient id="p.1" gradientUnits="userSpaceOnUse" gradientTransform="matrix(7.415342001420535 0.0 0.0 7.415342001420535 0.0 0.0)" spreadMethod="pad" cx="8.630754992519524" cy="8.630754992519524" fx="8.630754992519524" fy="8.630754992519524" r="7.415341854095459"><stop offset="0.0" stop-color="#696969"/><stop offset="1.0" stop-color="#1d1d1d"/></radialGradient></defs><path fill="url(#p.1)" d="m25.11811 64.0l0 0c0 -21.473873 17.408016 -38.88189 38.88189 -38.88189l0 0c10.312119 0 20.201881 4.096472 27.493645 11.388241c7.291771 7.291771 11.388245 17.18153 11.388245 27.493649l0 0c0 21.473877 -17.408012 38.88189 -38.88189 38.88189l0 0c-21.473873 0 -38.88189 -17.408012 -38.88189 -38.88189z" fill-rule="evenodd"/><path fill="#f3f3f3" d="m60.62992 84.30577l6.740158 0l0 13.8897705l-6.740158 0z" fill-rule="evenodd"/><defs><radialGradient id="p.2" gradientUnits="userSpaceOnUse" gradientTransform="matrix(9.51365693227718 0.0 0.0 9.51365693227718 0.0 0.0)" spreadMethod="pad" cx="6.727171313363831" cy="6.727171313363832" fx="6.727171313363831" fy="6.727171313363832" r="9.513656616210938"><stop offset="0.0" stop-color="#999999"/><stop offset="0.6" stop-color="#cccccc"/><stop offset="1.0" stop-color="#999999"/></radialGradient></defs><path fill="url(#p.2)" d="m0 64.0l0 0c0 -35.346222 28.653776 -64.0 64.0 -64.0l0 0c16.973854 0 33.252502 6.742838 45.254837 18.745167c12.002327 12.002327 18.745163 28.28098 18.745163 45.254833l0 0c0 35.346222 -28.653778 64.0 -64.0 64.0l0 0c-35.346222 0 -64.0 -28.653778 -64.0 -64.0zm32.0 0l0 0c0 17.673111 14.326889 32.0 32.0 32.0c17.673111 0 32.0 -14.326889 32.0 -32.0c0 -17.673111 -14.326889 -32.0 -32.0 -32.0l0 0c-17.673111 0 -32.0 14.326889 -32.0 32.0z" fill-rule="evenodd"/><path fill="#595959" d="m50.677166 26.975292l2.1994667 -3.9055119l22.246735 0l2.1994705 3.9055119z" fill-rule="evenodd"/><path fill="#6e6e6e" d="m53.627296 21.222012l2.1994667 -3.9055119l16.325474 0l2.1994705 3.9055119z" fill-rule="evenodd"/><path fill="#828282" d="m70.83714 15.468832l-6.8346405 -11.84252l-6.834648 11.84252z" fill-rule="evenodd"/><path fill="#4dff00" d="m50.677166 101.12631l2.1994667 3.90551l22.246735 0l2.1994705 -3.90551z" fill-rule="evenodd"/><path fill="#75ff39" d="m53.627296 106.87959l2.1994667 3.90551l16.325474 0l2.1994705 -3.90551z" fill-rule="evenodd"/><path fill="#a3ff7b" d="m70.83714 112.632774l-6.8346405 11.842522l-6.834648 -11.842522z" fill-rule="evenodd"/><path fill="#efefef" d="m42.139107 81.42257l43.74803 0l0 4.3149643l-43.74803 0z" fill-rule="evenodd"/></g></svg>