<svg version="1.1" width="128" height="128" viewBox="0.0 0.0 128.0 128.0" fill="none" stroke="none" stroke-linecap="square" stroke-miterlimit="10" xmlns:xlink="http://www.w3.org/1999/xlink" xmlns="http://www.w3.org/2000/svg"><clipPath id="p.0"><path d="m0 0l128.0 0l0 128.0l-128.0 0l0 -128.0z" clip-rule="nonzero"/></clipPath><g clip-path="url(#p.0)"><path fill="#000000" fill-opacity="0.0" d="m0 0l128.0 0l0 128.0l-128.0 0z" fill-rule="evenodd"/><defs><linearGradient id="p.1" gradientUnits="userSpaceOnUse" gradientTransform="matrix(11.129983096292856 0.0 0.0 11.129983096292856 0.0 0.0)" spreadMethod="pad" x1="-2.1163989592593393" y1="5.754697809631528" x2="5.756820189067303" y2="13.621650457651436"><stop offset="0.0" stop-color="#b6d7a8"/><stop offset="1.0" stop-color="#6aa84f"/></linearGradient></defs><path fill="url(#p.1)" d="m20.24147 38.090515l0 0c9.870802 0 17.872665 -8.001865 17.872665 -17.872667l51.848602 0l0 0c0 9.870802 8.001869 17.872667 17.872665 17.872667l0 51.848602l0 0c-9.870796 0 -17.872665 8.001869 -17.872665 17.872665l-51.848602 0c0 -9.870796 -8.0018635 -17.872665 -17.872665 -17.872665z" fill-rule="evenodd"/><defs><linearGradient id="p.2" gradientUnits="userSpaceOnUse" gradientTransform="matrix(13.454288356112334 0.0 0.0 13.454288356112334 0.0 0.0)" spreadMethod="pad" x1="-4.756816410383623" y1="4.7567851669911505" x2="4.756784785974169" y2="14.270421035894248"><stop offset="0.0" stop-color="#bfbfbf"/><stop offset="1.0" stop-color="#737373"/></linearGradient></defs><path fill="url(#p.2)" d="m-9.4225725E-5 -9.4225725E-5l127.99897 0l0 127.99897l-127.99897 0zm20.264795 20.264795l0 87.469376l87.469376 0l0 -87.469376z" fill-rule="evenodd"/><defs><radialGradient id="p.3" gradientUnits="userSpaceOnUse" gradientTransform="matrix(6.416321463491948 0.0 0.0 6.416321463491948 0.0 0.0)" spreadMethod="pad" cx="9.974467641279613" cy="9.974467641279613" fx="9.974467641279613" fy="9.974467641279613" r="6.416321277618408"><stop offset="0.0" stop-color="#dbd4eb"/><stop offset="1.0" stop-color="#9180bb"/></radialGradient></defs><path fill="url(#p.3)" d="m34.888386 63.99939l0 0c0 -16.077564 13.03344 -29.111004 29.111004 -29.111004l0 0c7.7207184 0 15.125221 3.0670433 20.584595 8.526417c5.459366 5.4593697 8.526413 12.863869 8.526413 20.584587l0 0c0 16.077568 -13.03344 29.111008 -29.111008 29.111008l0 0c-16.077564 0 -29.111004 -13.03344 -29.111004 -29.111008z" fill-rule="evenodd"/><defs><radialGradient id="p.4" gradientUnits="userSpaceOnUse" gradientTransform="matrix(5.374658552909892 0.0 0.0 5.374658552909892 0.0 0.0)" spreadMethod="pad" cx="11.90761983921721" cy="11.90761983921721" fx="11.90761983921721" fy="11.90761983921721" r="5.374658584594727"><stop offset="0.0" stop-color="#adc8f3"/><stop offset="0.42" stop-color="#5c96f1"/><stop offset="1.0" stop-color="#5c96f1"/></radialGradient></defs><path fill="url(#p.4)" d="m43.57323 63.99939l20.426159 -20.426159l20.426163 20.426159l-20.426163 20.426163z" fill-rule="evenodd"/></g></svg>