<svg version="1.1" viewBox="0.0 0.0 128.0 128.0" fill="none" stroke="none" stroke-linecap="square" stroke-miterlimit="10" xmlns:xlink="http://www.w3.org/1999/xlink" xmlns="http://www.w3.org/2000/svg"><clipPath id="p.0"><path d="m0 0l128.0 0l0 128.0l-128.0 0l0 -128.0z" clip-rule="nonzero"/></clipPath><g clip-path="url(#p.0)"><path fill="#000000" fill-opacity="0.0" d="m0 0l128.0 0l0 128.0l-128.0 0z" fill-rule="evenodd"/><defs><linearGradient id="p.1" gradientUnits="userSpaceOnUse" gradientTransform="matrix(11.138496297995218 0.0 0.0 11.138496297995218 0.0 0.0)" spreadMethod="pad" x1="-2.1248356535450315" y1="5.748802328279147" x2="5.754405674639421" y2="13.621772280761073"><stop offset="0.0" stop-color="#b6d7a8"/><stop offset="1.0" stop-color="#6aa84f"/></linearGradient></defs><path fill="url(#p.1)" d="m20.188976 38.038574l0 0c9.884211 0 17.896946 -8.012735 17.896946 -17.896946l51.949142 0l0 0c0 9.884211 8.012733 17.896946 17.896942 17.896946l0 51.919037l0 0c-9.884209 0 -17.896942 8.012741 -17.896942 17.89695l-51.949142 0c0 -9.884209 -8.012735 -17.89695 -17.896946 -17.89695z" fill-rule="evenodd"/><defs><linearGradient id="p.2" gradientUnits="userSpaceOnUse" gradientTransform="matrix(13.455993539991315 0.0 0.0 13.455993539991315 0.0 0.0)" spreadMethod="pad" x1="-4.758624763222356" y1="4.756265805045844" x2="4.756182372901035" y2="14.271107228352035"><stop offset="0.0" stop-color="#bfbfbf"/><stop offset="1.0" stop-color="#737373"/></linearGradient></defs><path fill="url(#p.2)" d="m-9.448819E-5 -0.031417586l127.99897 0l0 128.06386l-127.99897 0zm20.264797 20.264797l0 87.53427l87.469376 0l0 -87.53427z" fill-rule="evenodd"/><defs><radialGradient id="p.3" gradientUnits="userSpaceOnUse" gradientTransform="matrix(6.417134741828589 0.0 0.0 6.417134741828589 0.0 0.0)" spreadMethod="pad" cx="9.973203481924115" cy="9.973378660882775" fx="9.973203481924115" fy="9.973378660882775" r="6.417134761810303"><stop offset="0.0" stop-color="#ea9999"/><stop offset="1.0" stop-color="#e06666"/></radialGradient></defs><path fill="url(#p.3)" d="m34.888386 64.00051l0 0c0 -16.085712 13.03344 -29.125763 29.111004 -29.125763l0 0c7.7207184 0 15.125221 3.0685997 20.584587 8.530739c5.4593735 5.462143 8.526421 12.870396 8.526421 20.595024l0 0c0 16.085716 -13.03344 29.12577 -29.111008 29.12577l0 0c-16.077564 0 -29.111004 -13.040054 -29.111004 -29.12577z" fill-rule="evenodd"/><defs><radialGradient id="p.4" gradientUnits="userSpaceOnUse" gradientTransform="matrix(5.375339756474875 0.0 0.0 5.375339756474875 0.0 0.0)" spreadMethod="pad" cx="11.906110767061845" cy="11.906319897467094" fx="11.906110767061845" fy="11.906319897467094" r="5.375339984893799"><stop offset="0.0" stop-color="#ffde85"/><stop offset="0.42" stop-color="#ffc31f"/><stop offset="1.0" stop-color="#ffc31f"/></radialGradient></defs><path fill="url(#p.4)" d="m43.57323 64.00051l20.426159 -20.436512l20.426163 20.436512l-20.426163 20.436523z" fill-rule="evenodd"/></g></svg>