<svg version="1.1" width="1920" height="1088" viewBox="0.0 0.0 1920.0 1088.0" fill="none" stroke="none" stroke-linecap="square" stroke-miterlimit="10" xmlns:xlink="http://www.w3.org/1999/xlink" xmlns="http://www.w3.org/2000/svg"><clipPath id="p.0"><path d="m0 0l1920.0 0l0 1088.0l-1920.0 0l0 -1088.0z" clip-rule="nonzero"/></clipPath><g clip-path="url(#p.0)"><path fill="#000000" fill-opacity="0.0" d="m0 0l1920.0 0l0 1088.0l-1920.0 0z" fill-rule="evenodd"/><path fill="#222222" d="m-8.48294 -6.3622046l1936.3464 0l0 1102.8346l-1936.3464 0z" fill-rule="evenodd"/><path fill="#fff2cc" d="m89.073494 77.54855l14.843948 -3.1875458l3.1875458 -14.843948l3.1875458 14.843948l14.843948 3.1875458l-14.843948 3.1875534l-3.1875458 14.843948l-3.1875458 -14.843948z" fill-rule="evenodd"/><path fill="#fff2cc" d="m389.27036 132.60367l22.661316 -4.866226l4.8662415 -22.661324l4.866211 22.661324l22.661346 4.866226l-22.661346 4.8662415l-4.866211 22.661331l-4.8662415 -22.661331z" fill-rule="evenodd"/><path fill="#fff2cc" d="m1734.5931 486.92914l14.843994 -3.187561l3.1875 -14.843933l3.187622 14.843933l14.843872 3.187561l-14.843872 3.1875305l-3.187622 14.843964l-3.1875 -14.843964z" fill-rule="evenodd"/><path fill="#fff2cc" d="m370.00525 351.57742l14.843933 -3.1875305l3.187561 -14.843964l3.187561 14.843964l14.843933 3.1875305l-14.843933 3.187561l-3.187561 14.843933l-3.187561 -14.843933z" fill-rule="evenodd"/><path fill="#fff2cc" d="m353.20734 685.89764l14.843964 -3.187561l3.1875305 -14.843933l3.187561 14.843933l14.843964 3.187561l-14.843964 3.187561l-3.187561 14.843933l-3.1875305 -14.843933z" fill-rule="evenodd"/><path fill="#fff2cc" d="m543.2598 486.92914l14.843994 -3.187561l3.1875 -14.843933l3.187561 14.843933l14.843933 3.187561l-14.843933 3.1875305l-3.187561 14.843964l-3.1875 -14.843964z" fill-rule="evenodd"/><path fill="#fff2cc" d="m156.021 293.93964l14.843948 -3.187561l3.1875458 -14.843933l3.1875458 14.843933l14.843948 3.187561l-14.843948 3.1875305l-3.1875458 14.843964l-3.1875458 -14.843964z" fill-rule="evenodd"/><path fill="#fff2cc" d="m1251.6036 257.87665l14.843994 -3.187561l3.1875 -14.843948l3.187622 14.843948l14.843872 3.187561l-14.843872 3.1875305l-3.187622 14.843964l-3.1875 -14.843964z" fill-rule="evenodd"/><path fill="#fff2cc" d="m824.1732 132.60367l14.843933 -3.1875458l3.187561 -14.843941l3.187561 14.843941l14.843933 3.1875458l-14.843933 3.187561l-3.187561 14.843948l-3.187561 -14.843948z" fill-rule="evenodd"/><path fill="#fff2cc" d="m1052.3517 403.44357l14.843994 -3.187561l3.1875 -14.843933l3.187622 14.843933l14.843872 3.187561l-14.843872 3.1875305l-3.187622 14.843964l-3.1875 -14.843964z" fill-rule="evenodd"/><path fill="#fff2cc" d="m1573.1155 351.57742l14.843994 -3.1875305l3.1875 -14.843964l3.1875 14.843964l14.843994 3.1875305l-14.843994 3.187561l-3.1875 14.843933l-3.1875 -14.843933z" fill-rule="evenodd"/><path fill="#fff2cc" d="m146.52493 797.5958l22.661331 -4.866272l4.866226 -22.661316l4.8662415 22.661316l22.661316 4.866272l-22.661316 4.866211l-4.8662415 22.661316l-4.866226 -22.661316z" fill-rule="evenodd"/><path fill="#fff2cc" d="m1407.4672 653.8819l22.661377 -4.866211l4.866211 -22.661377l4.866211 22.661377l22.661377 4.866211l-22.661377 4.866211l-4.866211 22.661316l-4.866211 -22.661316z" fill-rule="evenodd"/><path fill="#fff2cc" d="m1141.3911 77.54855l22.661255 -4.866226l4.866211 -22.661331l4.866333 22.661331l22.661255 4.866226l-22.661255 4.866234l-4.866333 22.661331l-4.866211 -22.661331z" fill-rule="evenodd"/><path fill="#fff2cc" d="m1551.3832 169.14436l32.734497 -7.029312l7.029297 -32.734467l7.029297 32.734467l32.734497 7.029312l-32.734497 7.029297l-7.029297 32.73448l-7.029297 -32.73448z" fill-rule="evenodd"/><path fill="#fff2cc" d="m878.105 852.65094l22.661316 -4.866272l4.866272 -22.661316l4.866211 22.661316l22.661316 4.866272l-22.661316 4.866211l-4.866211 22.661316l-4.866272 -22.661316z" fill-rule="evenodd"/><path fill="#fff2cc" d="m995.3228 653.4409l11.875183 -2.5499878l2.5500488 -11.875183l2.5500488 11.875183l11.875122 2.5499878l-11.875122 2.5500488l-2.5500488 11.875183l-2.5500488 -11.875183z" fill-rule="evenodd"/><path fill="#fff2cc" d="m795.3228 333.44095l11.875183 -2.5500488l2.5500488 -11.875153l2.5500488 11.875153l11.875122 2.5500488l-11.875122 2.5500488l-2.5500488 11.875153l-2.5500488 -11.875153z" fill-rule="evenodd"/><path fill="#fff2cc" d="m579.3228 757.4409l11.875183 -2.5499878l2.5500488 -11.875183l2.5500488 11.875183l11.875122 2.5499878l-11.875122 2.5500488l-2.5500488 11.875183l-2.5500488 -11.875183z" fill-rule="evenodd"/><path fill="#fff2cc" d="m1180.3202 959.5932l11.875122 -2.5500488l2.5500488 -11.875183l2.5500488 11.875183l11.875244 2.5500488l-11.875244 2.5499878l-2.5500488 11.875183l-2.5500488 -11.875183z" fill-rule="evenodd"/><path fill="#fff2cc" d="m1738.1995 865.7533l11.875122 -2.5500488l2.5500488 -11.875183l2.5500488 11.875183l11.875244 2.5500488l-11.875244 2.5500488l-2.5500488 11.875122l-2.5500488 -11.875122z" fill-rule="evenodd"/><path fill="#fff2cc" d="m1812.4384 1001.54596l22.661255 -4.866272l4.866211 -22.661316l4.866333 22.661316l22.661255 4.866272l-22.661255 4.866211l-4.866333 22.661316l-4.866211 -22.661316z" fill-rule="evenodd"/><path fill="#fff2cc" d="m290.4777 976.2257l32.734467 -7.029297l7.029297 -32.734497l7.0293274 32.734497l32.734467 7.029297l-32.734467 7.029297l-7.0293274 32.734497l-7.029297 -32.734497z" fill-rule="evenodd"/><path fill="#efefef" d="m658.5413 484.66666l0 75.86435c0 5.8028564 1.7468262 10.548584 5.2405396 14.237244c3.508728 3.673645 8.764282 5.510437 15.766663 5.510437c7.0023804 0 14.072266 -0.06750488 21.209595 -0.20245361c7.13739 -0.13494873 13.9748535 -0.5247803 20.51239 -1.1695557l-0.96710205 -15.901611l-33.31018 0c-2.3840942 0 -4.2209473 -0.59228516 -5.510437 -1.7767944c-1.2894897 -1.199585 -1.9342651 -2.9539185 -1.9342651 -5.2630615l0 -71.29855z" fill-rule="evenodd"/><path fill="#efefef" d="m763.8256 524.7243c3.5986328 0 6.410095 0.5997925 8.434387 1.7993164c2.024231 1.199585 3.4262085 3.321289 4.2059326 6.3651733c0.79467773 3.0438232 1.1920166 7.422241 1.1920166 13.135071c0 5.5180054 -0.39733887 9.798889 -1.1920166 12.842773c-0.7797241 3.0438843 -2.1817017 5.1430664 -4.2059326 6.2976685c-2.024292 1.1395264 -4.8357544 1.7093506 -8.434387 1.7093506c-3.4937134 0 -6.2526855 -0.5698242 -8.2769165 -1.7093506c-2.024292 -1.154602 -3.4562378 -3.2538452 -4.2958984 -6.2976685c-0.82470703 -3.0438843 -1.2370605 -7.324829 -1.2370605 -12.842773c0 -5.7128296 0.41235352 -10.091248 1.2370605 -13.135071c0.83966064 -3.0438843 2.2716064 -5.1655884 4.2958984 -6.3651733c2.024231 -1.1995239 4.783203 -1.7993164 8.2769165 -1.7993164zm0 -14.777039c-8.471863 0 -15.286865 1.177063 -20.444946 3.531189c-5.158081 2.3391724 -8.891663 6.140259 -11.200806 11.403259c-2.2941895 5.248047 -3.4412231 12.295471 -3.4412231 21.14215c0 8.651794 1.1470337 15.609253 3.4412231 20.872253c2.309143 5.248108 6.0427246 9.026672 11.200806 11.335815c5.158081 2.2941284 11.9730835 3.4412231 20.444946 3.4412231c8.576782 0 15.444275 -1.1470947 20.602356 -3.4412231c5.158081 -2.309143 8.861694 -6.0877075 11.11084 -11.335815c2.2641602 -5.2630005 3.3962402 -12.220459 3.3962402 -20.872253c0 -8.84668 -1.1320801 -15.894043 -3.3962402 -21.14215c-2.2491455 -5.2630005 -5.952759 -9.064087 -11.11084 -11.403259c-5.158081 -2.354126 -12.025574 -3.531189 -20.602356 -3.531189z" fill-rule="evenodd"/><path fill="#efefef" d="m855.1858 549.4651l0 10.694214l0 0c-0.36950684 0.26489258 -0.74438477 0.5237427 -1.1246338 0.7765503c-2.7589722 1.8442993 -5.5479126 3.2763062 -8.366882 4.2958984c-2.803955 1.0046387 -5.3980103 1.506958 -7.7821045 1.506958c-2.8639526 0 -4.940674 -0.6222534 -6.2301636 -1.8668213c-1.2895508 -1.2445068 -1.9343262 -3.013855 -1.9343262 -5.3080444l0 -3.3287354c0 -2.024231 0.53234863 -3.6361694 1.5969238 -4.8356934c1.0646362 -1.199585 2.8339844 -1.8443604 5.3080444 -1.9343262zm-6.2302246 -39.517822c-3.4037476 0 -7.272278 0.16494751 -11.605652 0.49484253c-4.333435 0.31488037 -8.644287 0.7047119 -12.932739 1.1695557c-4.2733765 0.44985962 -8.067017 0.99710083 -11.380737 1.6418762l1.7993164 13.5625c5.5179443 -0.37487793 10.90094 -0.67474365 16.148987 -0.8996582c5.2630615 -0.2399292 9.686401 -0.35992432 13.270081 -0.35992432c4.1534424 0 6.9874268 0.7197876 8.501831 2.1592407c1.529419 1.4244385 2.3391724 3.793579 2.4291382 7.107361l0 3.1713257l-24.875793 0c-6.447632 0 -11.515747 1.5219116 -15.204346 4.565796c-3.6886597 3.0438843 -5.532959 7.279785 -5.532959 12.707764l0 7.062378c0 4.2284546 0.9671631 7.774658 2.9014282 10.63855c1.9342651 2.848938 4.5808105 4.993164 7.939575 6.432617c3.3737183 1.4244995 7.084839 2.1367188 11.133362 2.1367188c4.243408 0 8.021973 -0.6672363 11.335754 -2.00177c3.3137817 -1.3494873 6.21521 -3.013855 8.704285 -4.993103c2.2510376 -1.789978 4.1586304 -3.6167603 5.7229004 -5.4802856l0 0l2.14917 10.94574l16.171509 0l0 -45.18573c0 -6.2677 -1.0346069 -11.215881 -3.1038208 -14.844482c-2.069275 -3.6436768 -5.090637 -6.2227173 -9.064148 -7.7371216c-3.9585571 -1.5294495 -8.7942505 -2.2941895 -14.507141 -2.2941895z" fill-rule="evenodd"/><path fill="#efefef" d="m922.1902 524.58936c3.3287354 0 6.260132 0.34484863 8.794189 1.0346069c1.8674316 0.5083008 3.8692017 1.0817261 6.00531 1.7202759l0 0l0 32.032166l0 0c-1.4094849 0.9296875 -2.6990356 1.7493896 -3.8685913 2.4591064c-1.7543335 1.0646362 -3.508667 1.8518066 -5.2630615 2.3616333c-1.7393188 0.494812 -3.8085938 0.74224854 -6.2077026 0.74224854c-2.6690063 0 -4.8581543 -0.5248413 -6.567505 -1.5744629c-1.7094116 -1.0645752 -2.9539185 -2.9988403 -3.7336426 -5.8027954c-0.7797241 -2.8189697 -1.1695557 -6.942444 -1.1695557 -12.370422c0 -5.8028564 0.41235352 -10.181213 1.2369995 -13.135132c0.8397217 -2.9539185 2.1292114 -4.9331665 3.8685913 -5.937805c1.7543335 -1.0195923 4.055969 -1.529419 6.9049683 -1.529419zm14.7994995 -41.31717l0 18.51062c0 3.0438843 0.06744385 6.0202637 0.20239258 8.929199c0.08691406 1.8633728 0.20489502 3.7019348 0.35394287 5.5155945l0 0c-2.6135864 -1.8374023 -5.475525 -3.2410889 -8.585876 -4.2110596c-4.408386 -1.3795166 -9.056641 -2.069275 -13.944824 -2.069275c-5.7128906 0 -10.481079 1.0646057 -14.3046875 3.1938477c-3.8236084 2.1141968 -6.7025146 5.727844 -8.63678 10.840942c-1.9343262 5.113098 -2.9014282 12.227966 -2.9014282 21.344604c0 11.695679 1.8668213 20.677307 5.600403 26.945007c3.7336426 6.267639 9.971313 9.401489 18.713074 9.401489c6.447571 0 11.883057 -1.3120117 16.306458 -3.9360352c3.8737183 -2.2979736 7.11499 -5.0789795 9.723755 -8.342957l0 0l1.7469482 10.614624l16.171509 0l0 -96.7366z" fill-rule="evenodd"/><path fill="#efefef" d="m980.51025 481.6078c-4.048462 0 -6.072754 2.0317688 -6.072754 6.0952454l0 7.467224c0 4.0484924 2.024292 6.072754 6.072754 6.072754l8.839233 0c4.0634766 0 6.095215 -2.0242615 6.095215 -6.072754l0 -7.467224c0 -4.0634766 -2.0317383 -6.0952454 -6.095215 -6.0952454zm-5.6679077 30.138824l0 68.26218l20.175049 0l0 -68.26218z" fill-rule="evenodd"/><path fill="#efefef" d="m1059.8325 509.94727c-4.9781494 0 -10.023804 1.1095886 -15.136841 3.3287964c-4.82605 2.0804443 -9.545288 5.022461 -14.157593 8.826111l0 0l-1.7889404 -10.35556l-16.306519 0l0 68.26218l20.309937 0l0 -46.89984l0 0c3.7052002 -1.7935791 6.884033 -3.179016 9.536499 -4.15625c3.133789 -1.154541 6.170166 -1.7318115 9.109131 -1.7318115c2.68396 0 4.573242 0.5772705 5.6678467 1.7318115c1.1096191 1.154602 1.6644287 3.246338 1.6644287 6.2752075l0 44.780884l20.444946 0l0 -51.123535c0 -12.625305 -6.447632 -18.937988 -19.342896 -18.937988z" fill-rule="evenodd"/><path fill="#efefef" d="m1125.6104 522.3852c5.068115 0 8.546875 0.6672363 10.436157 2.001709c1.8892822 1.3345337 2.8339844 3.7561035 2.8339844 7.2648315c0 3.4037476 -0.94470215 5.795349 -2.8339844 7.1748047c-1.8892822 1.3795166 -5.368042 2.069275 -10.436157 2.069275c-5.068115 0 -8.569336 -0.6897583 -10.50354 -2.069275c-1.9343262 -1.3794556 -2.9014893 -3.7710571 -2.9014893 -7.1748047c0 -3.508728 0.9671631 -5.930298 2.9014893 -7.2648315c1.9342041 -1.3344727 5.435425 -2.001709 10.50354 -2.001709zm-11.041138 52.82263l17.40625 1.8995361c2.848999 0.26989746 5.0981445 0.63726807 6.7475586 1.1021118c1.6643066 0.4647827 2.8189697 1.1095581 3.463745 1.9342651c0.6446533 0.82470703 0.967041 2.1141968 0.967041 3.8685303c0 2.024292 -0.4873047 3.5911865 -1.4619141 4.7008057c-0.9595947 1.1095581 -2.661499 1.8667603 -5.105591 2.2716064c-2.4290771 0.41986084 -5.9003906 0.6298218 -10.413696 0.6298218c-4.243408 0 -7.587158 -0.20996094 -10.03125 -0.6298218c-2.4440918 -0.4048462 -4.123413 -1.1845093 -5.038086 -2.3391113c-0.91467285 -1.154541 -1.3720703 -2.7889404 -1.3720703 -4.9031982c0 -1.8442993 0.29248047 -3.3137207 0.87719727 -4.408325c0.5998535 -1.1096191 1.6119385 -2.2416992 3.036377 -3.3962402c0.29040527 -0.23297119 0.5986328 -0.47625732 0.9244385 -0.72998047zm11.176147 -65.26056c-7.9171143 0 -14.252319 0.74224854 -19.005493 2.2266846c-4.7382812 1.4694824 -8.141968 3.793579 -10.211182 6.972412c-2.0692139 3.178833 -3.1038818 7.34729 -3.1038818 12.505371c0 5.158081 1.012085 9.304016 3.036377 12.437866c1.5567627 2.3986206 3.9161377 4.313843 7.078125 5.7457886l0 0c-1.4047852 0.8034668 -2.6170654 1.8795776 -3.636963 3.2283936c-1.3793945 1.8442993 -2.2341309 3.9210205 -2.5639648 6.2301636c-0.3149414 2.2941895 -0.10498047 4.5508423 0.62976074 6.7700195c0.64172363 1.8868408 1.7669678 3.5594482 3.3757324 5.017761l0 0c-1.6138916 0.7313843 -3.0166016 1.4953613 -4.2078857 2.2919922c-2.474121 1.6644287 -4.2209473 3.531189 -5.2406006 5.600464c-1.0196533 2.0692139 -1.529419 4.5357666 -1.529419 7.399719c0 3.7786255 0.5548096 6.927429 1.6643066 9.446533c1.1096191 2.5340576 2.9989014 4.5807495 5.6679688 6.1401978c2.6689453 1.5744019 6.3276367 2.706482 10.975952 3.3962402c4.663208 0.7047119 10.58606 1.0571289 17.76831 1.0571289c8.756836 0 15.759155 -0.5997925 21.007202 -1.7993774c5.248047 -1.1995239 9.071655 -3.388733 11.470825 -6.567566c2.3990479 -3.178772 3.5986328 -7.7145996 3.5986328 -13.607422c0 -6.2677 -1.4769287 -11.035889 -4.430908 -14.3046875c-2.9538574 -3.2687988 -8.021973 -5.278076 -15.204346 -6.027771l-25.14563 -2.9014282c-2.4890137 -0.26989746 -4.100952 -1.0946045 -4.8356934 -2.47406c-0.7347412 -1.3795166 -0.8547363 -2.848938 -0.35986328 -4.408386c0.22424316 -0.69262695 0.52404785 -1.314148 0.8991699 -1.864563l0 0c3.5250244 0.49334717 7.5811768 0.73999023 12.168457 0.73999023c7.932007 0 14.267212 -0.7347412 19.005493 -2.2041626c4.738159 -1.4844971 8.119507 -3.8085938 10.143677 -6.972412c2.0393066 -3.178833 3.058838 -7.302307 3.058838 -12.370422c0 -4.04303 -0.61486816 -7.453369 -1.8448486 -10.231079l0 0l8.614868 -1.1047363l1.1020508 -8.569305l-22.534302 0c-4.4768066 -1.1995544 -10.2803955 -1.7993469 -17.410767 -1.7993469z" fill-rule="evenodd"/><path fill="#efefef" d="m1181.5845 559.0016c-2.6689453 0 -4.5357666 0.5322876 -5.600464 1.5969238c-1.0645752 1.0495605 -1.5968018 2.9163818 -1.5968018 5.600403l0 6.63501c0 2.6690063 0.53222656 4.5358276 1.5968018 5.600464c1.0646973 1.0495605 2.9315186 1.5744019 5.600464 1.5744019l5.2406006 0c2.6689453 0 4.5357666 -0.5248413 5.600342 -1.5744019c1.0646973 -1.0646362 1.5969238 -2.9314575 1.5969238 -5.600464l0 -6.63501c0 -2.684021 -0.53222656 -4.5508423 -1.5969238 -5.600403c-1.0645752 -1.0646362 -2.9313965 -1.5969238 -5.600342 -1.5969238z" fill-rule="evenodd"/><path fill="#efefef" d="m1215.3025 559.0016c-2.6689453 0 -4.5357666 0.5322876 -5.600464 1.5969238c-1.0645752 1.0495605 -1.5968018 2.9163818 -1.5968018 5.600403l0 6.63501c0 2.6690063 0.53222656 4.5358276 1.5968018 5.600464c1.0646973 1.0495605 2.9315186 1.5744019 5.600464 1.5744019l5.2406006 0c2.6689453 0 4.5357666 -0.5248413 5.600342 -1.5744019c1.0646973 -1.0646362 1.5969238 -2.9314575 1.5969238 -5.600464l0 -6.63501c0 -2.684021 -0.53222656 -4.5508423 -1.5969238 -5.600403c-1.0645752 -1.0646362 -2.9313965 -1.5969238 -5.600342 -1.5969238z" fill-rule="evenodd"/><path fill="#efefef" d="m1249.0205 559.0016c-2.6689453 0 -4.5357666 0.5322876 -5.600342 1.5969238c-1.0645752 1.0495605 -1.5969238 2.9163818 -1.5969238 5.600403l0 6.63501c0 2.6690063 0.53234863 4.5358276 1.5969238 5.600464c1.0645752 1.0495605 2.9313965 1.5744019 5.600342 1.5744019l5.2406006 0c2.6690674 0 4.5358887 -0.5248413 5.600464 -1.5744019c1.0645752 -1.0646362 1.5969238 -2.9314575 1.5969238 -5.600464l0 -6.63501c0 -2.684021 -0.53234863 -4.5508423 -1.5969238 -5.600403c-1.0645752 -1.0646362 -2.9313965 -1.5969238 -5.600464 -1.5969238z" fill-rule="evenodd"/><path stroke="#222222" stroke-width="1.0" stroke-linejoin="round" stroke-linecap="butt" d="m658.5413 484.66666l0 75.86435c0 5.8028564 1.7468262 10.548584 5.2405396 14.237244c3.508728 3.673645 8.764282 5.510437 15.766663 5.510437c7.0023804 0 14.072266 -0.06750488 21.209595 -0.20245361c7.13739 -0.13494873 13.9748535 -0.5247803 20.51239 -1.1695557l-0.96710205 -15.901611l-33.31018 0c-2.3840942 0 -4.2209473 -0.59228516 -5.510437 -1.7767944c-1.2894897 -1.199585 -1.9342651 -2.9539185 -1.9342651 -5.2630615l0 -71.29855z" fill-rule="evenodd"/><path stroke="#222222" stroke-width="1.0" stroke-linejoin="round" stroke-linecap="butt" d="m763.8256 524.7243c3.5986328 0 6.410095 0.5997925 8.434387 1.7993164c2.024231 1.199585 3.4262085 3.321289 4.2059326 6.3651733c0.79467773 3.0438232 1.1920166 7.422241 1.1920166 13.135071c0 5.5180054 -0.39733887 9.798889 -1.1920166 12.842773c-0.7797241 3.0438843 -2.1817017 5.1430664 -4.2059326 6.2976685c-2.024292 1.1395264 -4.8357544 1.7093506 -8.434387 1.7093506c-3.4937134 0 -6.2526855 -0.5698242 -8.2769165 -1.7093506c-2.024292 -1.154602 -3.4562378 -3.2538452 -4.2958984 -6.2976685c-0.82470703 -3.0438843 -1.2370605 -7.324829 -1.2370605 -12.842773c0 -5.7128296 0.41235352 -10.091248 1.2370605 -13.135071c0.83966064 -3.0438843 2.2716064 -5.1655884 4.2958984 -6.3651733c2.024231 -1.1995239 4.783203 -1.7993164 8.2769165 -1.7993164zm0 -14.777039c-8.471863 0 -15.286865 1.177063 -20.444946 3.531189c-5.158081 2.3391724 -8.891663 6.140259 -11.200806 11.403259c-2.2941895 5.248047 -3.4412231 12.295471 -3.4412231 21.14215c0 8.651794 1.1470337 15.609253 3.4412231 20.872253c2.309143 5.248108 6.0427246 9.026672 11.200806 11.335815c5.158081 2.2941284 11.9730835 3.4412231 20.444946 3.4412231c8.576782 0 15.444275 -1.1470947 20.602356 -3.4412231c5.158081 -2.309143 8.861694 -6.0877075 11.11084 -11.335815c2.2641602 -5.2630005 3.3962402 -12.220459 3.3962402 -20.872253c0 -8.84668 -1.1320801 -15.894043 -3.3962402 -21.14215c-2.2491455 -5.2630005 -5.952759 -9.064087 -11.11084 -11.403259c-5.158081 -2.354126 -12.025574 -3.531189 -20.602356 -3.531189z" fill-rule="evenodd"/><path stroke="#222222" stroke-width="1.0" stroke-linejoin="round" stroke-linecap="butt" d="m855.1858 549.4651l0 10.694214l0 0c-0.36950684 0.26489258 -0.74438477 0.5237427 -1.1246338 0.7765503c-2.7589722 1.8442993 -5.5479126 3.2763062 -8.366882 4.2958984c-2.803955 1.0046387 -5.3980103 1.506958 -7.7821045 1.506958c-2.8639526 0 -4.940674 -0.6222534 -6.2301636 -1.8668213c-1.2895508 -1.2445068 -1.9343262 -3.013855 -1.9343262 -5.3080444l0 -3.3287354c0 -2.024231 0.53234863 -3.6361694 1.5969238 -4.8356934c1.0646362 -1.199585 2.8339844 -1.8443604 5.3080444 -1.9343262zm-6.2302246 -39.517822c-3.4037476 0 -7.272278 0.16494751 -11.605652 0.49484253c-4.333435 0.31488037 -8.644287 0.7047119 -12.932739 1.1695557c-4.2733765 0.44985962 -8.067017 0.99710083 -11.380737 1.6418762l1.7993164 13.5625c5.5179443 -0.37487793 10.90094 -0.67474365 16.148987 -0.8996582c5.2630615 -0.2399292 9.686401 -0.35992432 13.270081 -0.35992432c4.1534424 0 6.9874268 0.7197876 8.501831 2.1592407c1.529419 1.4244385 2.3391724 3.793579 2.4291382 7.107361l0 3.1713257l-24.875793 0c-6.447632 0 -11.515747 1.5219116 -15.204346 4.565796c-3.6886597 3.0438843 -5.532959 7.279785 -5.532959 12.707764l0 7.062378c0 4.2284546 0.9671631 7.774658 2.9014282 10.63855c1.9342651 2.848938 4.5808105 4.993164 7.939575 6.432617c3.3737183 1.4244995 7.084839 2.1367188 11.133362 2.1367188c4.243408 0 8.021973 -0.6672363 11.335754 -2.00177c3.3137817 -1.3494873 6.21521 -3.013855 8.704285 -4.993103c2.2510376 -1.789978 4.1586304 -3.6167603 5.7229004 -5.4802856l0 0l2.14917 10.94574l16.171509 0l0 -45.18573c0 -6.2677 -1.0346069 -11.215881 -3.1038208 -14.844482c-2.069275 -3.6436768 -5.090637 -6.2227173 -9.064148 -7.7371216c-3.9585571 -1.5294495 -8.7942505 -2.2941895 -14.507141 -2.2941895z" fill-rule="evenodd"/><path stroke="#222222" stroke-width="1.0" stroke-linejoin="round" stroke-linecap="butt" d="m922.1902 524.58936c3.3287354 0 6.260132 0.34484863 8.794189 1.0346069c1.8674316 0.5083008 3.8692017 1.0817261 6.00531 1.7202759l0 0l0 32.032166l0 0c-1.4094849 0.9296875 -2.6990356 1.7493896 -3.8685913 2.4591064c-1.7543335 1.0646362 -3.508667 1.8518066 -5.2630615 2.3616333c-1.7393188 0.494812 -3.8085938 0.74224854 -6.2077026 0.74224854c-2.6690063 0 -4.8581543 -0.5248413 -6.567505 -1.5744629c-1.7094116 -1.0645752 -2.9539185 -2.9988403 -3.7336426 -5.8027954c-0.7797241 -2.8189697 -1.1695557 -6.942444 -1.1695557 -12.370422c0 -5.8028564 0.41235352 -10.181213 1.2369995 -13.135132c0.8397217 -2.9539185 2.1292114 -4.9331665 3.8685913 -5.937805c1.7543335 -1.0195923 4.055969 -1.529419 6.9049683 -1.529419zm14.7994995 -41.31717l0 18.51062c0 3.0438843 0.06744385 6.0202637 0.20239258 8.929199c0.08691406 1.8633728 0.20489502 3.7019348 0.35394287 5.5155945l0 0c-2.6135864 -1.8374023 -5.475525 -3.2410889 -8.585876 -4.2110596c-4.408386 -1.3795166 -9.056641 -2.069275 -13.944824 -2.069275c-5.7128906 0 -10.481079 1.0646057 -14.3046875 3.1938477c-3.8236084 2.1141968 -6.7025146 5.727844 -8.63678 10.840942c-1.9343262 5.113098 -2.9014282 12.227966 -2.9014282 21.344604c0 11.695679 1.8668213 20.677307 5.600403 26.945007c3.7336426 6.267639 9.971313 9.401489 18.713074 9.401489c6.447571 0 11.883057 -1.3120117 16.306458 -3.9360352c3.8737183 -2.2979736 7.11499 -5.0789795 9.723755 -8.342957l0 0l1.7469482 10.614624l16.171509 0l0 -96.7366z" fill-rule="evenodd"/><path stroke="#222222" stroke-width="1.0" stroke-linejoin="round" stroke-linecap="butt" d="m980.51025 481.6078c-4.048462 0 -6.072754 2.0317688 -6.072754 6.0952454l0 7.467224c0 4.0484924 2.024292 6.072754 6.072754 6.072754l8.839233 0c4.0634766 0 6.095215 -2.0242615 6.095215 -6.072754l0 -7.467224c0 -4.0634766 -2.0317383 -6.0952454 -6.095215 -6.0952454zm-5.6679077 30.138824l0 68.26218l20.175049 0l0 -68.26218z" fill-rule="evenodd"/><path stroke="#222222" stroke-width="1.0" stroke-linejoin="round" stroke-linecap="butt" d="m1059.8325 509.94727c-4.9781494 0 -10.023804 1.1095886 -15.136841 3.3287964c-4.82605 2.0804443 -9.545288 5.022461 -14.157593 8.826111l0 0l-1.7889404 -10.35556l-16.306519 0l0 68.26218l20.309937 0l0 -46.89984l0 0c3.7052002 -1.7935791 6.884033 -3.179016 9.536499 -4.15625c3.133789 -1.154541 6.170166 -1.7318115 9.109131 -1.7318115c2.68396 0 4.573242 0.5772705 5.6678467 1.7318115c1.1096191 1.154602 1.6644287 3.246338 1.6644287 6.2752075l0 44.780884l20.444946 0l0 -51.123535c0 -12.625305 -6.447632 -18.937988 -19.342896 -18.937988z" fill-rule="evenodd"/><path stroke="#222222" stroke-width="1.0" stroke-linejoin="round" stroke-linecap="butt" d="m1125.6104 522.3852c5.068115 0 8.546875 0.6672363 10.436157 2.001709c1.8892822 1.3345337 2.8339844 3.7561035 2.8339844 7.2648315c0 3.4037476 -0.94470215 5.795349 -2.8339844 7.1748047c-1.8892822 1.3795166 -5.368042 2.069275 -10.436157 2.069275c-5.068115 0 -8.569336 -0.6897583 -10.50354 -2.069275c-1.9343262 -1.3794556 -2.9014893 -3.7710571 -2.9014893 -7.1748047c0 -3.508728 0.9671631 -5.930298 2.9014893 -7.2648315c1.9342041 -1.3344727 5.435425 -2.001709 10.50354 -2.001709zm-11.041138 52.82263l17.40625 1.8995361c2.848999 0.26989746 5.0981445 0.63726807 6.7475586 1.1021118c1.6643066 0.4647827 2.8189697 1.1095581 3.463745 1.9342651c0.6446533 0.82470703 0.967041 2.1141968 0.967041 3.8685303c0 2.024292 -0.4873047 3.5911865 -1.4619141 4.7008057c-0.9595947 1.1095581 -2.661499 1.8667603 -5.105591 2.2716064c-2.4290771 0.41986084 -5.9003906 0.6298218 -10.413696 0.6298218c-4.243408 0 -7.587158 -0.20996094 -10.03125 -0.6298218c-2.4440918 -0.4048462 -4.123413 -1.1845093 -5.038086 -2.3391113c-0.91467285 -1.154541 -1.3720703 -2.7889404 -1.3720703 -4.9031982c0 -1.8442993 0.29248047 -3.3137207 0.87719727 -4.408325c0.5998535 -1.1096191 1.6119385 -2.2416992 3.036377 -3.3962402c0.29040527 -0.23297119 0.5986328 -0.47625732 0.9244385 -0.72998047zm11.176147 -65.26056c-7.9171143 0 -14.252319 0.74224854 -19.005493 2.2266846c-4.7382812 1.4694824 -8.141968 3.793579 -10.211182 6.972412c-2.0692139 3.178833 -3.1038818 7.34729 -3.1038818 12.505371c0 5.158081 1.012085 9.304016 3.036377 12.437866c1.5567627 2.3986206 3.9161377 4.313843 7.078125 5.7457886l0 0c-1.4047852 0.8034668 -2.6170654 1.8795776 -3.636963 3.2283936c-1.3793945 1.8442993 -2.2341309 3.9210205 -2.5639648 6.2301636c-0.3149414 2.2941895 -0.10498047 4.5508423 0.62976074 6.7700195c0.64172363 1.8868408 1.7669678 3.5594482 3.3757324 5.017761l0 0c-1.6138916 0.7313843 -3.0166016 1.4953613 -4.2078857 2.2919922c-2.474121 1.6644287 -4.2209473 3.531189 -5.2406006 5.600464c-1.0196533 2.0692139 -1.529419 4.5357666 -1.529419 7.399719c0 3.7786255 0.5548096 6.927429 1.6643066 9.446533c1.1096191 2.5340576 2.9989014 4.5807495 5.6679688 6.1401978c2.6689453 1.5744019 6.3276367 2.706482 10.975952 3.3962402c4.663208 0.7047119 10.58606 1.0571289 17.76831 1.0571289c8.756836 0 15.759155 -0.5997925 21.007202 -1.7993774c5.248047 -1.1995239 9.071655 -3.388733 11.470825 -6.567566c2.3990479 -3.178772 3.5986328 -7.7145996 3.5986328 -13.607422c0 -6.2677 -1.4769287 -11.035889 -4.430908 -14.3046875c-2.9538574 -3.2687988 -8.021973 -5.278076 -15.204346 -6.027771l-25.14563 -2.9014282c-2.4890137 -0.26989746 -4.100952 -1.0946045 -4.8356934 -2.47406c-0.7347412 -1.3795166 -0.8547363 -2.848938 -0.35986328 -4.408386c0.22424316 -0.69262695 0.52404785 -1.314148 0.8991699 -1.864563l0 0c3.5250244 0.49334717 7.5811768 0.73999023 12.168457 0.73999023c7.932007 0 14.267212 -0.7347412 19.005493 -2.2041626c4.738159 -1.4844971 8.119507 -3.8085938 10.143677 -6.972412c2.0393066 -3.178833 3.058838 -7.302307 3.058838 -12.370422c0 -4.04303 -0.61486816 -7.453369 -1.8448486 -10.231079l0 0l8.614868 -1.1047363l1.1020508 -8.569305l-22.534302 0c-4.4768066 -1.1995544 -10.2803955 -1.7993469 -17.410767 -1.7993469z" fill-rule="evenodd"/><path stroke="#222222" stroke-width="1.0" stroke-linejoin="round" stroke-linecap="butt" d="m1181.5845 559.0016c-2.6689453 0 -4.5357666 0.5322876 -5.600464 1.5969238c-1.0645752 1.0495605 -1.5968018 2.9163818 -1.5968018 5.600403l0 6.63501c0 2.6690063 0.53222656 4.5358276 1.5968018 5.600464c1.0646973 1.0495605 2.9315186 1.5744019 5.600464 1.5744019l5.2406006 0c2.6689453 0 4.5357666 -0.5248413 5.600342 -1.5744019c1.0646973 -1.0646362 1.5969238 -2.9314575 1.5969238 -5.600464l0 -6.63501c0 -2.684021 -0.53222656 -4.5508423 -1.5969238 -5.600403c-1.0645752 -1.0646362 -2.9313965 -1.5969238 -5.600342 -1.5969238z" fill-rule="evenodd"/><path stroke="#222222" stroke-width="1.0" stroke-linejoin="round" stroke-linecap="butt" d="m1215.3025 559.0016c-2.6689453 0 -4.5357666 0.5322876 -5.600464 1.5969238c-1.0645752 1.0495605 -1.5968018 2.9163818 -1.5968018 5.600403l0 6.63501c0 2.6690063 0.53222656 4.5358276 1.5968018 5.600464c1.0646973 1.0495605 2.9315186 1.5744019 5.600464 1.5744019l5.2406006 0c2.6689453 0 4.5357666 -0.5248413 5.600342 -1.5744019c1.0646973 -1.0646362 1.5969238 -2.9314575 1.5969238 -5.600464l0 -6.63501c0 -2.684021 -0.53222656 -4.5508423 -1.5969238 -5.600403c-1.0645752 -1.0646362 -2.9313965 -1.5969238 -5.600342 -1.5969238z" fill-rule="evenodd"/><path stroke="#222222" stroke-width="1.0" stroke-linejoin="round" stroke-linecap="butt" d="m1249.0205 559.0016c-2.6689453 0 -4.5357666 0.5322876 -5.600342 1.5969238c-1.0645752 1.0495605 -1.5969238 2.9163818 -1.5969238 5.600403l0 6.63501c0 2.6690063 0.53234863 4.5358276 1.5969238 5.600464c1.0645752 1.0495605 2.9313965 1.5744019 5.600342 1.5744019l5.2406006 0c2.6690674 0 4.5358887 -0.5248413 5.600464 -1.5744019c1.0645752 -1.0646362 1.5969238 -2.9314575 1.5969238 -5.600464l0 -6.63501c0 -2.684021 -0.53234863 -4.5508423 -1.5969238 -5.600403c-1.0645752 -1.0646362 -2.9313965 -1.5969238 -5.600464 -1.5969238z" fill-rule="evenodd"/></g></svg>