<svg version="1.1" width="320" height="512" viewBox="0.0 0.0 320.0 512.0" fill="none" stroke="none" stroke-linecap="square" stroke-miterlimit="10" xmlns:xlink="http://www.w3.org/1999/xlink" xmlns="http://www.w3.org/2000/svg"><clipPath id="p.0"><path d="m0 0l320.0 0l0 512.0l-320.0 0l0 -512.0z" clip-rule="nonzero"/></clipPath><g clip-path="url(#p.0)"><path fill="#000000" fill-opacity="0.0" d="m0 0l320.0 0l0 512.0l-320.0 0z" fill-rule="evenodd"/><defs><linearGradient id="p.1" gradientUnits="userSpaceOnUse" gradientTransform="matrix(12.942026806718244 0.0 0.0 12.942026806718244 0.0 0.0)" spreadMethod="pad" x1="5.9469603562755955" y1="39.536481981327185" x2="18.88898716299384" y2="39.536481981327185"><stop offset="0.0" stop-color="#6d9eeb"/><stop offset="0.5" stop-color="#c9daf8"/><stop offset="1.0" stop-color="#6d9eeb"/></linearGradient></defs><path fill="url(#p.1)" d="m76.96572 99.58771l167.49606 0l0 412.09448l-167.49606 0z" fill-rule="evenodd"/><defs><linearGradient id="p.2" gradientUnits="userSpaceOnUse" gradientTransform="matrix(13.35343854741321 0.0 0.0 13.35343854741321 0.0 0.0)" spreadMethod="pad" x1="18.12103759269736" y1="-1.492595270440013" x2="4.867165642687712" y2="0.13504085974647764"><stop offset="0.0" stop-color="#6d9eeb"/><stop offset="0.54" stop-color="#c9daf8"/><stop offset="1.0" stop-color="#6d9eeb"/></linearGradient></defs><path fill="url(#p.2)" d="m77.0895 100.302055l0.8241501 -5.6797943l2.2624664 -6.4094467l2.2572174 -5.475067l2.026245 -4.545929l2.1469803 -4.9396286l3.2126007 -6.278221l3.6902847 -7.0761147l6.068245 -9.485561l4.4094467 -6.4146996l2.734909 -3.7427826l5.238846 -6.4094467l4.8818893 -5.8740177l3.3333359 -3.4750652l4.4041977 -4.2782154l4.645668 -4.005249l3.5695496 -3.2020998l4.0472565 -3.0708666l3.5695496 -2.2729654l4.8818817 -2.5354333l3.9265137 -2.0104985l5.1233673 -2.0l6.425186 -0.8031496l3.9317627 0.26771656l7.1443634 2.4094486l5.475052 3.2021l6.18898 3.7427816l3.3333435 2.666667l4.1679688 3.0761156l3.5747986 3.2020988l2.6194305 2.2729664l4.9973755 5.212599l3.5695496 4.005249l2.6194305 2.666668l2.4986877 3.34383l2.8608856 3.4750671l2.4986877 3.4698143l2.8556519 4.141735l4.05249 6.010498l1.9002533 3.4750633l3.0971222 4.80315l2.4986877 4.682415l2.6194153 4.8031464l1.9055176 4.67717l2.8556366 6.1469803l2.2624664 6.005249l1.9055176 5.0761185l1.3123322 3.7427826l0.9501343 3.3385773l-5.7165375 0l-156.31496 0l-3.254593 0.068244934z" fill-rule="evenodd"/><defs><linearGradient id="p.3" gradientUnits="userSpaceOnUse" gradientTransform="matrix(9.164864730581442 0.0 0.0 9.164864730581442 0.0 0.0)" spreadMethod="pad" x1="2.01073158262203" y1="15.129666354133404" x2="11.175596313203473" y2="15.129666354133404"><stop offset="0.0" stop-color="#d4e1e5"/><stop offset="1.0" stop-color="#9cafb3"/></linearGradient></defs><path fill="url(#p.3)" d="m102.42284 29.282701l-42.89764 103.61214l-2.3779526 -1.3687134l-38.719162 7.1352234l22.755903 -59.95379z" fill-rule="evenodd"/><path fill="#000000" fill-opacity="0.0" d="m102.42284 30.37194l7.181099 6.8661423" fill-rule="evenodd"/><path stroke="#b7b7b7" stroke-width="1.0" stroke-linejoin="round" stroke-linecap="butt" d="m102.42284 30.37194l7.181099 6.8661423" fill-rule="evenodd"/><path fill="#000000" fill-opacity="0.0" d="m60.2264 131.9283l16.755909 2.015747" fill-rule="evenodd"/><path stroke="#b7b7b7" stroke-width="1.0" stroke-linejoin="round" stroke-linecap="butt" d="m60.2264 131.9283l16.755909 2.015747" fill-rule="evenodd"/><defs><linearGradient id="p.4" gradientUnits="userSpaceOnUse" gradientTransform="matrix(-8.099655986450621 1.2465344433570287 1.2465344433570287 8.099655986450621 0.0 0.0)" spreadMethod="pad" x1="-33.79748719815" y1="22.32099951142709" x2="-25.69783121169938" y2="22.32099951142709"><stop offset="0.0" stop-color="#d4e1e5"/><stop offset="1.0" stop-color="#9cafb3"/></linearGradient></defs><path fill="url(#p.4)" d="m217.57957 29.279379l42.75328 103.13874l2.5222473 -0.89508057l38.716827 7.1396484l-22.753418 -59.961357z" fill-rule="evenodd"/><path fill="#000000" fill-opacity="0.0" d="m218.20236 30.072727l-6.86615 6.9921265" fill-rule="evenodd"/><path stroke="#b7b7b7" stroke-width="1.0" stroke-linejoin="round" stroke-linecap="butt" d="m218.20236 30.072727l-6.86615 6.9921265" fill-rule="evenodd"/><path fill="#000000" fill-opacity="0.0" d="m260.50378 131.9283l-16.755905 2.015747" fill-rule="evenodd"/><path stroke="#b7b7b7" stroke-width="1.0" stroke-linejoin="round" stroke-linecap="butt" d="m260.50378 131.9283l-16.755905 2.015747" fill-rule="evenodd"/><defs><linearGradient id="p.5" gradientUnits="userSpaceOnUse" gradientTransform="matrix(7.282813335431587 0.0 0.0 7.282813335431587 0.0 0.0)" spreadMethod="pad" x1="3.2850143007196904" y1="70.25770645439965" x2="10.567827636151277" y2="70.25770645439965"><stop offset="0.0" stop-color="#efefef"/><stop offset="0.3" stop-color="#d9d9d9"/><stop offset="0.69" stop-color="#c4c4c4"/><stop offset="1.0" stop-color="#999999"/></linearGradient></defs><path fill="url(#p.5)" d="m23.924147 436.58716l53.039368 0l0 75.08661l-53.039368 0z" fill-rule="evenodd"/><defs><linearGradient id="p.6" gradientUnits="userSpaceOnUse" gradientTransform="matrix(-7.286028657805857 0.0 0.0 7.286028657805857 0.0 0.0)" spreadMethod="pad" x1="-3.2724846290789174" y1="44.219061378523286" x2="-10.558512681916742" y2="44.21609226612012"><stop offset="0.0" stop-color="#efefef"/><stop offset="0.69" stop-color="#c4c4c4"/><stop offset="1.0" stop-color="#999999"/></linearGradient></defs><path fill="url(#p.6)" d="m76.929634 437.20496l0 -115.02365l-53.039368 115.02365z" fill-rule="evenodd"/><defs><linearGradient id="p.7" gradientUnits="userSpaceOnUse" gradientTransform="matrix(-7.282813335431587 0.0 0.0 7.282813335431587 0.0 0.0)" spreadMethod="pad" x1="-40.849848988963736" y1="70.25770645439965" x2="-33.567035653532145" y2="70.25770645439965"><stop offset="0.0" stop-color="#efefef"/><stop offset="0.3" stop-color="#d9d9d9"/><stop offset="0.69" stop-color="#c4c4c4"/><stop offset="1.0" stop-color="#999999"/></linearGradient></defs><path fill="url(#p.7)" d="m297.5018 436.58716l-53.039352 0l0 75.08661l53.039352 0z" fill-rule="evenodd"/><defs><linearGradient id="p.8" gradientUnits="userSpaceOnUse" gradientTransform="matrix(7.282869646653357 0.0 0.0 7.282869646653357 0.0 0.0)" spreadMethod="pad" x1="40.854297040151764" y1="44.23823898427141" x2="33.571427393694876" y2="44.238185488910865"><stop offset="0.0" stop-color="#efefef"/><stop offset="0.69" stop-color="#c4c4c4"/><stop offset="1.0" stop-color="#999999"/></linearGradient></defs><path fill="url(#p.8)" d="m244.49632 437.20496l0 -115.02365l53.039383 115.02365z" fill-rule="evenodd"/><defs><radialGradient id="p.9" gradientUnits="userSpaceOnUse" gradientTransform="matrix(7.881246090830163 0.0 0.0 7.881246090830163 0.0 0.0)" spreadMethod="pad" cx="20.301557889360012" cy="12.682590599676761" fx="20.301557889360012" fy="12.682590599676761" r="7.881246089935303"><stop offset="0.0" stop-color="#696969"/><stop offset="1.0" stop-color="#1d1d1d"/></radialGradient></defs><path fill="url(#p.9)" d="m116.080315 70.95956l0 0c0 -8.243511 6.682686 -14.926197 14.926201 -14.926197l57.990112 0l0 0c3.9586792 0 7.7552185 1.5725746 10.554428 4.3717804c2.7991943 2.7992058 4.3717804 6.595745 4.3717804 10.554417l0 57.99012c0 8.243515 -6.6826935 14.9262085 -14.9262085 14.9262085l-57.990112 0c-8.243515 0 -14.926201 -6.6826935 -14.926201 -14.9262085z" fill-rule="evenodd"/><defs><linearGradient id="p.10" gradientUnits="userSpaceOnUse" gradientTransform="matrix(2.5961813265476974 0.0 0.0 2.5961813265476974 0.0 0.0)" spreadMethod="pad" x1="60.33351278415475" y1="55.43141420402863" x2="62.92969411070245" y2="55.43141420402863"><stop offset="0.0" stop-color="#d9d9d9"/><stop offset="0.5" stop-color="#f3f3f3"/><stop offset="1.0" stop-color="#d9d9d9"/></linearGradient></defs><path fill="url(#p.10)" d="m156.63675 127.1226l6.740158 0l0 16.787407l-6.740158 0z" fill-rule="evenodd"/><path fill="#f3f3f3" d="m138.14594 125.38506l43.74803 0l0 4.3149643l-43.74803 0z" fill-rule="evenodd"/><defs><radialGradient id="p.11" gradientUnits="userSpaceOnUse" gradientTransform="matrix(8.478858729664715 0.0 0.0 8.478858729664715 0.0 0.0)" spreadMethod="pad" cx="15.864046751420307" cy="8.79117225420456" fx="15.864046751420307" fy="8.79117225420456" r="8.478858947753906"><stop offset="0.0" stop-color="#fde7ca"/><stop offset="1.0" stop-color="#dbc09c"/></radialGradient></defs><path fill="url(#p.11)" d="m134.50902 99.95643l0 0c0 -14.037598 11.379715 -25.41732 25.417313 -25.41732l0 0c6.741104 0 13.206085 2.677887 17.972763 7.444557c4.766678 4.766678 7.444565 11.231674 7.444565 17.972763l0 0c0 14.037605 -11.37973 25.417328 -25.417328 25.417328l0 0c-14.037598 0 -25.417313 -11.379723 -25.417313 -25.417328z" fill-rule="evenodd"/><path fill="#000000" fill-opacity="0.0" d="m147.01714 112.03815l0.14974976 0.053359985l0.15008545 0.06314087l0.14169312 0.053359985l0.16654968 0.053367615l0.15008545 0.062934875l0.17494202 0.07291412l0.18333435 0.062934875l0.18331909 0.07271576l0.17494202 0.058250427l0.19137573 0.06313324l0.19172668 0.06782532l0.16653442 0.058250427l0.20013428 0.06782532l0.20326233 0.07373047l0.26660156 0.087379456l0.2414093 0.08248901l0.26660156 0.08228302l0.22497559 0.058250427l0.2501526 0.07759857l0.216568 0.058250427l0.22496033 0.07271576l0.2749939 0.06313324l0.2498169 0.07759857l0.26660156 0.06497955l0.39149475 0.10183716l0.29179382 0.07270813l0.37471008 0.08248901l0.45832825 0.10183716l0.54159546 0.11629486l0.4579773 0.087379456l0.416687 0.08248901l0.7231903 0.1105957l0.7497711 0.10183716l0.6832886 0.08248901l0.63290405 0.062934875l0.46673584 0.038902283l0.591629 0.03869629l0.50801086 0.029121399l0.56643677 0.019355774l0.49995422 0.0048828125l0.649704 0.004890442l0.6168213 0l0.55804443 -0.014663696l0.42474365 -0.019348145l0.45832825 -0.03401184l0.5083618 -0.033813477l0.38310242 -0.029129028l0.5164032 -0.053359985l0.416687 -0.048477173l0.76657104 -0.09123993l0.5996704 -0.10183716l0.60002136 -0.092063904l0.4663849 -0.09226227l0.591629 -0.10183716l0.49995422 -0.10183716l0.4579773 -0.11630249l0.5332031 -0.12627411l0.35021973 -0.08717346l0.20817566 -0.058250427l0.43138123 -0.12607574l0.5667877 -0.15519714l0.44958496 -0.13585663l0.5251465 -0.16008759l0.41635132 -0.14053345l0.46672058 -0.15519714l0.61647034 -0.22322845l0.48316956 -0.17943573l0.40829468 -0.16966248l0.28305054 -0.096954346" fill-rule="evenodd"/><path stroke="#000000" stroke-width="1.0" stroke-linejoin="round" stroke-linecap="butt" d="m147.01714 112.03815l0.14974976 0.053359985l0.15008545 0.06314087l0.14169312 0.053359985l0.16654968 0.053367615l0.15008545 0.062934875l0.17494202 0.07291412l0.18333435 0.062934875l0.18331909 0.07271576l0.17494202 0.058250427l0.19137573 0.06313324l0.19172668 0.06782532l0.16653442 0.058250427l0.20013428 0.06782532l0.20326233 0.07373047l0.26660156 0.087379456l0.2414093 0.08248901l0.26660156 0.08228302l0.22497559 0.058250427l0.2501526 0.07759857l0.216568 0.058250427l0.22496033 0.07271576l0.2749939 0.06313324l0.2498169 0.07759857l0.26660156 0.06497955l0.39149475 0.10183716l0.29179382 0.07270813l0.37471008 0.08248901l0.45832825 0.10183716l0.54159546 0.11629486l0.4579773 0.087379456l0.416687 0.08248901l0.7231903 0.1105957l0.7497711 0.10183716l0.6832886 0.08248901l0.63290405 0.062934875l0.46673584 0.038902283l0.591629 0.03869629l0.50801086 0.029121399l0.56643677 0.019355774l0.49995422 0.0048828125l0.649704 0.004890442l0.6168213 0l0.55804443 -0.014663696l0.42474365 -0.019348145l0.45832825 -0.03401184l0.5083618 -0.033813477l0.38310242 -0.029129028l0.5164032 -0.053359985l0.416687 -0.048477173l0.76657104 -0.09123993l0.5996704 -0.10183716l0.60002136 -0.092063904l0.4663849 -0.09226227l0.591629 -0.10183716l0.49995422 -0.10183716l0.4579773 -0.11630249l0.5332031 -0.12627411l0.35021973 -0.08717346l0.20817566 -0.058250427l0.43138123 -0.12607574l0.5667877 -0.15519714l0.44958496 -0.13585663l0.5251465 -0.16008759l0.41635132 -0.14053345l0.46672058 -0.15519714l0.61647034 -0.22322845l0.48316956 -0.17943573l0.40829468 -0.16966248l0.28305054 -0.096954346" fill-rule="evenodd"/><path fill="#ffffff" d="m148.84128 92.34278l0 0c0 -2.0699768 1.6780548 -3.7480316 3.7480316 -3.7480316l0 0c0.9940491 0 1.9473724 0.3948822 2.6502686 1.0977707c0.70288086 0.7028961 1.0977631 1.6562195 1.0977631 2.650261l0 0c0 2.0699844 -1.6780396 3.7480316 -3.7480316 3.7480316l0 0c-2.0699768 0 -3.7480316 -1.6780472 -3.7480316 -3.7480316z" fill-rule="evenodd"/><defs><linearGradient id="p.12" gradientUnits="userSpaceOnUse" gradientTransform="matrix(6.408851752363266 0.0 0.0 6.408851752363266 0.0 0.0)" spreadMethod="pad" x1="26.98383019864647" y1="18.761985266376524" x2="31.515630323355833" y2="14.230300324387077"><stop offset="0.0" stop-color="#666666"/><stop offset="1.0" stop-color="#999999"/></linearGradient></defs><path fill="url(#p.12)" d="m165.60367 74.902885l-2.4225616 -0.010498047l2.4225616 4.265091l-1.7559052 2.787407l-1.1679688 4.721779l-2.4803162 1.792656l0.5065613 5.9973755l3.8713837 2.9763718l2.632553 6.776909l6.13385 1.9317551l4.745407 -1.3307114l3.167984 2.6955414l3.582672 -0.06561279l0.32022095 -1.4042053l0.19158936 -1.72966l0.32022095 -2.17585l-0.13386536 -2.973755l-0.37794495 -3.4251938l-0.83203125 -3.8398972l-1.4199371 -2.8320236l-1.5853119 -3.0577393l-2.4986877 -3.2624664l-3.1364746 -3.0708694l-4.5380554 -2.5747986l-3.5774384 -1.5958023z" fill-rule="evenodd"/><path fill="#ff0000" d="m165.15363 92.34278l0 0c0 -2.0699768 1.6780396 -3.7480316 3.7480316 -3.7480316l0 0c0.9940338 0 1.9473572 0.3948822 2.6502533 1.0977707c0.7028961 0.7028961 1.0977783 1.6562195 1.0977783 2.650261l0 0c0 2.0699844 -1.6780548 3.7480316 -3.7480316 3.7480316l0 0c-2.069992 0 -3.7480316 -1.6780472 -3.7480316 -3.7480316z" fill-rule="evenodd"/><path fill="#990000" d="m167.40617 92.34278l0 0c0 -0.82624817 0.6697998 -1.4960632 1.4960632 -1.4960632l0 0c0.3967743 0 0.777298 0.15762329 1.0578766 0.43818665c0.28056335 0.28057098 0.43818665 0.66109467 0.43818665 1.0578766l0 0c0 0.8262558 -0.66981506 1.4960632 -1.4960632 1.4960632l0 0c-0.8262634 0 -1.4960632 -0.66980743 -1.4960632 -1.4960632z" fill-rule="evenodd"/><path fill="#000000" d="m151.09325 92.34278l0 0c0 -0.82624817 0.66981506 -1.4960632 1.4960632 -1.4960632l0 0c0.39678955 0 0.77731323 0.15762329 1.0578766 0.43818665c0.2805786 0.28057098 0.43818665 0.66109467 0.43818665 1.0578766l0 0c0 0.8262558 -0.6697998 1.4960632 -1.4960632 1.4960632l0 0c-0.82624817 0 -1.4960632 -0.66980743 -1.4960632 -1.4960632z" fill-rule="evenodd"/></g></svg>