<svg version="1.1" viewBox="0.0 0.0 512.0 512.0" fill="none" stroke="none" stroke-linecap="square" stroke-miterlimit="10" xmlns:xlink="http://www.w3.org/1999/xlink" xmlns="http://www.w3.org/2000/svg"><clipPath id="p.0"><path d="m0 0l512.0 0l0 512.0l-512.0 0l0 -512.0z" clip-rule="nonzero"/></clipPath><g clip-path="url(#p.0)"><path fill="#000000" fill-opacity="0.0" d="m0 0l512.0 0l0 512.0l-512.0 0z" fill-rule="evenodd"/><defs><linearGradient id="p.1" gradientUnits="userSpaceOnUse" gradientTransform="matrix(12.942027400865395 0.0 0.0 12.942027400865395 0.0 0.0)" spreadMethod="pad" x1="11.97604714452949" y1="39.56168467994392" x2="24.918074545394884" y2="39.56168467994392"><stop offset="0.0" stop-color="#cccccc"/><stop offset="0.5" stop-color="#efefef"/><stop offset="1.0" stop-color="#cccccc"/></linearGradient></defs><path fill="url(#p.1)" d="m154.99434 99.91393l167.49605 0l0 412.09448l-167.49605 0z" fill-rule="evenodd"/><defs><linearGradient id="p.2" gradientUnits="userSpaceOnUse" gradientTransform="matrix(13.353438166381064 0.0 0.0 13.353438166381064 0.0 0.0)" spreadMethod="pad" x1="23.96437252676544" y1="-1.4681655105718916" x2="10.710500966353838" y2="0.15947066605819507"><stop offset="0.0" stop-color="#cccccc"/><stop offset="0.37" stop-color="#dedede"/><stop offset="0.54" stop-color="#efefef"/><stop offset="0.72" stop-color="#dedede"/><stop offset="1.0" stop-color="#cccccc"/></linearGradient></defs><path fill="url(#p.2)" d="m155.1181 100.62828l0.8241577 -5.6797943l2.2624664 -6.4094467l2.2572174 -5.475067l2.026245 -4.545929l2.146988 -4.939636l3.2125854 -6.2782135l3.6902924 -7.0761147l6.0682373 -9.485565l4.4094543 -6.4146996l2.734909 -3.7427826l5.238846 -6.4094467l4.8818817 -5.874016l3.3333435 -3.4750671l4.40419 -4.2782154l4.6456757 -4.005249l3.5695496 -3.2020988l4.047241 -3.0708666l3.5695648 -2.272966l4.8818817 -2.5354328l3.9265137 -2.0104988l5.123352 -2.0l6.4252014 -0.8031496l3.9317627 0.26771653l7.144348 2.4094489l5.475067 3.2020996l6.18898 3.742782l3.3333435 2.666667l4.1679688 3.0761147l3.5747986 3.2021008l2.6194153 2.2729664l4.9973755 5.212597l3.56958 4.005251l2.6194153 2.666666l2.4986877 3.34383l2.8609009 3.4750671l2.4986877 3.469818l2.8556213 4.1417313l4.05249 6.010498l1.9002686 3.4750671l3.097107 4.8031464l2.4986877 4.682419l2.6194458 4.8031464l1.9054871 4.67717l2.8556519 6.1469803l2.2624817 6.005249l1.9054871 5.076111l1.3123474 3.7427826l0.9501343 3.338585l-5.716522 0l-156.31497 0l-3.254593 0.068244934z" fill-rule="evenodd"/><defs><linearGradient id="p.3" gradientUnits="userSpaceOnUse" gradientTransform="matrix(9.16486501025345 0.0 0.0 9.16486501025345 0.0 0.0)" spreadMethod="pad" x1="10.604231660510742" y1="15.16497392365994" x2="19.769096670764192" y2="15.16497392365994"><stop offset="0.0" stop-color="#efefef"/><stop offset="1.0" stop-color="#b7b7b7"/></linearGradient></defs><path fill="url(#p.3)" d="m181.1811 29.606298l-42.897644 103.61213l-2.377945 -1.3687134l-38.71917 7.1352234l22.755913 -59.95379z" fill-rule="evenodd"/><path fill="#000000" fill-opacity="0.0" d="m180.45145 30.698162l7.1811066 6.8661423" fill-rule="evenodd"/><path stroke="#b7b7b7" stroke-width="1.0" stroke-linejoin="round" stroke-linecap="butt" d="m180.45145 30.698162l7.1811066 6.8661423" fill-rule="evenodd"/><path fill="#000000" fill-opacity="0.0" d="m138.255 132.25453l16.755905 2.015747" fill-rule="evenodd"/><path stroke="#b7b7b7" stroke-width="1.0" stroke-linejoin="round" stroke-linecap="butt" d="m138.255 132.25453l16.755905 2.015747" fill-rule="evenodd"/><defs><linearGradient id="p.4" gradientUnits="userSpaceOnUse" gradientTransform="matrix(-8.099655986450621 1.2465344433570287 1.2465344433570287 8.099655986450621 0.0 0.0)" spreadMethod="pad" x1="-43.20211033524995" y1="23.80864444795238" x2="-35.10245434879933" y2="23.80864444795238"><stop offset="0.0" stop-color="#efefef"/><stop offset="1.0" stop-color="#b7b7b7"/></linearGradient></defs><path fill="url(#p.4)" d="m295.6082 29.605602l42.753265 103.13875l2.5222473 -0.89508057l38.716827 7.139633l-22.753387 -59.96135z" fill-rule="evenodd"/><path fill="#000000" fill-opacity="0.0" d="m296.23096 30.39895l-6.8661194 6.9921246" fill-rule="evenodd"/><path stroke="#b7b7b7" stroke-width="1.0" stroke-linejoin="round" stroke-linecap="butt" d="m296.23096 30.39895l-6.8661194 6.9921246" fill-rule="evenodd"/><path fill="#000000" fill-opacity="0.0" d="m338.53238 132.25453l-16.75589 2.015747" fill-rule="evenodd"/><path stroke="#b7b7b7" stroke-width="1.0" stroke-linejoin="round" stroke-linecap="butt" d="m338.53238 132.25453l-16.75589 2.015747" fill-rule="evenodd"/><defs><linearGradient id="p.5" gradientUnits="userSpaceOnUse" gradientTransform="matrix(7.282813335431587 0.0 0.0 7.282813335431587 0.0 0.0)" spreadMethod="pad" x1="13.9990895289739" y1="70.30250212635147" x2="21.281902864405488" y2="70.30250212635147"><stop offset="0.0" stop-color="#efefef"/><stop offset="0.3" stop-color="#d9d9d9"/><stop offset="0.69" stop-color="#c4c4c4"/><stop offset="1.0" stop-color="#999999"/></linearGradient></defs><path fill="url(#p.5)" d="m101.95276 436.9134l53.039368 0l0 75.08661l-53.039368 0z" fill-rule="evenodd"/><defs><linearGradient id="p.6" gradientUnits="userSpaceOnUse" gradientTransform="matrix(-7.282870350539647 0.0 0.0 7.282870350539647 0.0 0.0)" spreadMethod="pad" x1="-13.994214624930876" y1="44.28302721438139" x2="-21.27708497527405" y2="44.282973719026025"><stop offset="0.0" stop-color="#efefef"/><stop offset="0.69" stop-color="#c4c4c4"/><stop offset="1.0" stop-color="#999999"/></linearGradient></defs><path fill="url(#p.6)" d="m154.95825 437.53116l0 -115.02362l-53.039375 115.02362z" fill-rule="evenodd"/><defs><linearGradient id="p.7" gradientUnits="userSpaceOnUse" gradientTransform="matrix(-7.282813335431587 0.0 0.0 7.282813335431587 0.0 0.0)" spreadMethod="pad" x1="-51.56392351332618" y1="70.30250212635147" x2="-44.28111017789459" y2="70.30250212635147"><stop offset="0.0" stop-color="#efefef"/><stop offset="0.3" stop-color="#d9d9d9"/><stop offset="0.69" stop-color="#c4c4c4"/><stop offset="1.0" stop-color="#999999"/></linearGradient></defs><path fill="url(#p.7)" d="m375.53043 436.9134l-53.039368 0l0 75.08661l53.039368 0z" fill-rule="evenodd"/><defs><linearGradient id="p.8" gradientUnits="userSpaceOnUse" gradientTransform="matrix(7.282869646653357 0.0 0.0 7.282869646653357 0.0 0.0)" spreadMethod="pad" x1="51.56828872318162" y1="44.283031494317356" x2="44.28541907672473" y2="44.28297799895681"><stop offset="0.0" stop-color="#efefef"/><stop offset="0.69" stop-color="#c4c4c4"/><stop offset="1.0" stop-color="#999999"/></linearGradient></defs><path fill="url(#p.8)" d="m322.52493 437.53116l0 -115.02362l53.039368 115.02362z" fill-rule="evenodd"/></g></svg>