<svg version="1.1" viewBox="0.0 0.0 256.0 256.0" fill="none" stroke="none" stroke-linecap="square" stroke-miterlimit="10" xmlns:xlink="http://www.w3.org/1999/xlink" xmlns="http://www.w3.org/2000/svg"><clipPath id="p.0"><path d="m0 0l256.0 0l0 256.0l-256.0 0l0 -256.0z" clip-rule="nonzero"/></clipPath><g clip-path="url(#p.0)"><path fill="#000000" fill-opacity="0.0" d="m0 0l256.0 0l0 256.0l-256.0 0z" fill-rule="evenodd"/><path fill="#cfe2f3" d="m4.469816 122.48294l0 0c0 -66.98736 54.303986 -121.291336 121.291336 -121.291336c66.98735 0 121.291336 54.30398 121.291336 121.291336c0 66.98735 -54.303986 121.291336 -121.291336 121.291336c-66.98735 0 -121.291336 -54.303986 -121.291336 -121.291336z" fill-rule="evenodd"/><path fill="#a5b4c2" d="m74.268486 86.20785c0 -6.977852 5.6566696 -12.634514 12.6345215 -12.634514c6.977844 0 12.634514 5.656662 12.634514 12.634514c0 6.977844 -5.6566696 12.634514 -12.634514 12.634514c-6.977852 0 -12.6345215 -5.6566696 -12.6345215 -12.634514m77.7163 0c0 -6.977852 5.656662 -12.634514 12.6345215 -12.634514c6.977844 0 12.634506 5.656662 12.634506 12.634514c0 6.977844 -5.656662 12.634514 -12.634506 12.634514c-6.9778595 0 -12.6345215 -5.6566696 -12.6345215 -12.634514" fill-rule="evenodd"/><path fill="#000000" fill-opacity="0.0" d="m60.020454 175.3789q65.7407 45.149475 131.32788 0" fill-rule="evenodd"/><path fill="#000000" fill-opacity="0.0" d="m4.469816 122.48294l0 0c0 -66.98736 54.303986 -121.291336 121.291336 -121.291336c66.98735 0 121.291336 54.30398 121.291336 121.291336c0 66.98735 -54.303986 121.291336 -121.291336 121.291336c-66.98735 0 -121.291336 -54.303986 -121.291336 -121.291336z" fill-rule="evenodd"/><path stroke="#000000" stroke-width="1.0" stroke-linejoin="round" stroke-linecap="butt" d="m74.268486 86.20785c0 -6.977852 5.6566696 -12.634514 12.6345215 -12.634514c6.977844 0 12.634514 5.656662 12.634514 12.634514c0 6.977844 -5.6566696 12.634514 -12.634514 12.634514c-6.977852 0 -12.6345215 -5.6566696 -12.6345215 -12.634514m77.7163 0c0 -6.977852 5.656662 -12.634514 12.6345215 -12.634514c6.977844 0 12.634506 5.656662 12.634506 12.634514c0 6.977844 -5.656662 12.634514 -12.634506 12.634514c-6.9778595 0 -12.6345215 -5.6566696 -12.6345215 -12.634514" fill-rule="evenodd"/><path stroke="#000000" stroke-width="1.0" stroke-linejoin="round" stroke-linecap="butt" d="m60.020454 175.3789q65.7407 45.149475 131.32788 0" fill-rule="evenodd"/><path stroke="#000000" stroke-width="1.0" stroke-linejoin="round" stroke-linecap="butt" d="m4.469816 122.48294l0 0c0 -66.98736 54.303986 -121.291336 121.291336 -121.291336c66.98735 0 121.291336 54.30398 121.291336 121.291336c0 66.98735 -54.303986 121.291336 -121.291336 121.291336c-66.98735 0 -121.291336 -54.303986 -121.291336 -121.291336z" fill-rule="evenodd"/></g></svg>