<svg version="1.1" viewBox="0.0 0.0 64.0 64.0" fill="none" stroke="none" stroke-linecap="square" stroke-miterlimit="10" xmlns:xlink="http://www.w3.org/1999/xlink" xmlns="http://www.w3.org/2000/svg"><clipPath id="p.0"><path d="m0 0l64.0 0l0 64.0l-64.0 0l0 -64.0z" clip-rule="nonzero"/></clipPath><g clip-path="url(#p.0)"><path fill="#000000" fill-opacity="0.0" d="m0 0l64.0 0l0 64.0l-64.0 0z" fill-rule="evenodd"/><path fill="#c6c6c6" d="m-0.496063 -0.496063l65.00787 0l0 65.00787l-65.00787 0z" fill-rule="evenodd"/><defs><radialGradient id="p.1" gradientUnits="userSpaceOnUse" gradientTransform="matrix(3.5746711982627124 0.0 0.0 3.5746711982627124 0.0 0.0)" spreadMethod="pad" cx="9.484266035264701" cy="9.384412919092554" fx="9.484266035264701" fy="9.384412919092554" r="3.5746712684631348"><stop offset="0.0" stop-color="#dddddd"/><stop offset="1.0" stop-color="#919191"/></radialGradient></defs><path fill="url(#p.1)" d="m38.152843 26.761675c-3.1080475 -1.4160118 -11.512686 -1.85783 -13.351706 0.5511799c-1.8390198 2.4090118 -0.7904625 12.486877 2.317585 13.902889c3.1080494 1.416008 14.49169 -2.9978142 16.33071 -5.406826c1.8390198 -2.4090118 -2.1885376 -7.631233 -5.296589 -9.047243z" fill-rule="evenodd"/><path stroke="#666666" stroke-width="1.0" stroke-linejoin="round" stroke-linecap="butt" d="m38.152843 26.761675c-3.1080475 -1.4160118 -11.512686 -1.85783 -13.351706 0.5511799c-1.8390198 2.4090118 -0.7904625 12.486877 2.317585 13.902889c3.1080494 1.416008 14.49169 -2.9978142 16.33071 -5.406826c1.8390198 -2.4090118 -2.1885376 -7.631233 -5.296589 -9.047243z" fill-rule="evenodd"/></g></svg>