<svg version="1.1" width="64" height="64" viewBox="0.0 0.0 64.0 64.0" fill="none" stroke="none" stroke-linecap="square" stroke-miterlimit="10" xmlns:xlink="http://www.w3.org/1999/xlink" xmlns="http://www.w3.org/2000/svg"><clipPath id="p.0"><path d="m0 0l64.0 0l0 64.0l-64.0 0l0 -64.0z" clip-rule="nonzero"/></clipPath><g clip-path="url(#p.0)"><path fill="#000000" fill-opacity="0.0" d="m0 0l64.0 0l0 64.0l-64.0 0z" fill-rule="evenodd"/><path fill="#d2d2d2" d="m-0.5511811 -0.5511811l65.102356 0l0 65.102356l-65.102356 0z" fill-rule="evenodd"/><defs><radialGradient id="p.1" gradientUnits="userSpaceOnUse" gradientTransform="matrix(4.433214210495411 0.0 0.0 4.433214210495411 0.0 0.0)" spreadMethod="pad" cx="4.440741864787619" cy="3.7339917915189567" fx="4.440741864787619" fy="3.7339917915189567" r="4.43321418762207"><stop offset="0.0" stop-color="#dddddd"/><stop offset="1.0" stop-color="#919191"/></radialGradient></defs><path fill="url(#p.1)" d="m21.319407 28.020622c-4.9654408 1.4899387 -14.528434 1.8569565 -16.330708 -2.0971127c-1.8022745 -3.9540672 2.0778656 -19.677603 5.5170603 -21.627296c3.4391956 -1.9496934 11.072178 7.8145237 15.118111 9.929134c4.045931 2.1146107 9.874891 0.4593172 9.15748 2.7585297c-0.71741104 2.2992134 -8.4965 9.546806 -13.461943 11.036745z" fill-rule="evenodd"/></g></svg>