<svg version="1.1" viewBox="0.0 0.0 64.0 64.0" fill="none" stroke="none" stroke-linecap="square" stroke-miterlimit="10" xmlns:xlink="http://www.w3.org/1999/xlink" xmlns="http://www.w3.org/2000/svg"><clipPath id="p.0"><path d="m0 0l64.0 0l0 64.0l-64.0 0l0 -64.0z" clip-rule="nonzero"/></clipPath><g clip-path="url(#p.0)"><path fill="#000000" fill-opacity="0.0" d="m0 0l64.0 0l0 64.0l-64.0 0z" fill-rule="evenodd"/><path fill="#cccccc" d="m-0.5958005 -0.5958005l65.19685 0l0 65.19685l-65.19685 0z" fill-rule="evenodd"/><defs><radialGradient id="p.1" gradientUnits="userSpaceOnUse" gradientTransform="matrix(3.5345436123080023 -3.175857092709529 3.175857092709529 3.5345436123080023 0.0 0.0)" spreadMethod="pad" cx="2.7110479730969694" cy="10.514860245836362" fx="2.7110479730969694" fy="10.514860245836362" r="3.534543514251709"><stop offset="0.0" stop-color="#dddddd"/><stop offset="1.0" stop-color="#919191"/></radialGradient></defs><path fill="url(#p.1)" d="m29.328062 27.733011c-1.5027409 4.4731274 6.628767 12.849447 9.494345 14.712194c2.8655777 1.8627472 6.475052 -1.778553 7.6991196 -3.5357208c1.2240677 -1.7571678 -1.7733994 -5.802643 -0.35471725 -7.007286c1.4186859 -1.2046413 8.58815 2.495388 8.866825 -0.22057152c0.27867126 -2.7159595 -2.9105186 -15.417089 -7.1947784 -16.075191c-4.2842636 -0.658103 -17.008053 7.653448 -18.510794 12.126575z" fill-rule="evenodd"/><path stroke="#666666" stroke-width="1.0" stroke-linejoin="round" stroke-linecap="butt" d="m29.328062 27.733011c-1.5027409 4.4731274 6.628767 12.849447 9.494345 14.712194c2.8655777 1.8627472 6.475052 -1.778553 7.6991196 -3.5357208c1.2240677 -1.7571678 -1.7733994 -5.802643 -0.35471725 -7.007286c1.4186859 -1.2046413 8.58815 2.495388 8.866825 -0.22057152c0.27867126 -2.7159595 -2.9105186 -15.417089 -7.1947784 -16.075191c-4.2842636 -0.658103 -17.008053 7.653448 -18.510794 12.126575z" fill-rule="evenodd"/></g></svg>