<svg version="1.1" viewBox="0.0 0.0 64.0 64.0" fill="none" stroke="none" stroke-linecap="square" stroke-miterlimit="10" xmlns:xlink="http://www.w3.org/1999/xlink" xmlns="http://www.w3.org/2000/svg"><clipPath id="p.0"><path d="m0 0l64.0 0l0 64.0l-64.0 0l0 -64.0z" clip-rule="nonzero"/></clipPath><g clip-path="url(#p.0)"><path fill="#000000" fill-opacity="0.0" d="m0 0l64.0 0l0 64.0l-64.0 0z" fill-rule="evenodd"/><path fill="#cccccc" d="m-0.496063 -0.496063l65.00787 0l0 65.00787l-65.00787 0z" fill-rule="evenodd"/><defs><radialGradient id="p.1" gradientUnits="userSpaceOnUse" gradientTransform="matrix(5.604409903955555 0.0 0.0 5.604409903955555 0.0 0.0)" spreadMethod="pad" cx="6.061836371814768" cy="5.7113248577288065" fx="6.061836371814768" fy="5.7113248577288065" r="5.604409694671631"><stop offset="0.0" stop-color="#dddddd"/><stop offset="1.0" stop-color="#919191"/></radialGradient></defs><path fill="url(#p.1)" d="m14.792856 38.266365c-0.8092737 -3.8801422 -4.139983 -5.9956284 -3.2020998 -10.372705c0.9378824 -4.377077 4.268154 -13.167978 8.829396 -15.889764c4.561243 -2.7217846 12.524496 -2.0958004 18.538057 -0.44094467c6.0135612 1.6548557 16.954945 6.63692 17.543308 10.370078c0.58836365 3.73316 -12.854771 8.479441 -14.013123 12.028873c-1.1583557 3.5494308 7.7064743 6.049431 7.062992 9.267715c-0.6434822 3.2182846 -5.4063873 8.717846 -10.923885 10.041996c-5.517498 1.3241463 -18.208662 0.403759 -22.181103 -2.0971146c-3.9724417 -2.5008736 -0.84426975 -9.027996 -1.6535435 -12.908134z" fill-rule="evenodd"/><path stroke="#666666" stroke-width="1.0" stroke-linejoin="round" stroke-linecap="butt" d="m14.792856 38.266365c-0.8092737 -3.8801422 -4.139983 -5.9956284 -3.2020998 -10.372705c0.9378824 -4.377077 4.268154 -13.167978 8.829396 -15.889764c4.561243 -2.7217846 12.524496 -2.0958004 18.538057 -0.44094467c6.0135612 1.6548557 16.954945 6.63692 17.543308 10.370078c0.58836365 3.73316 -12.854771 8.479441 -14.013123 12.028873c-1.1583557 3.5494308 7.7064743 6.049431 7.062992 9.267715c-0.6434822 3.2182846 -5.4063873 8.717846 -10.923885 10.041996c-5.517498 1.3241463 -18.208662 0.403759 -22.181103 -2.0971146c-3.9724417 -2.5008736 -0.84426975 -9.027996 -1.6535435 -12.908134z" fill-rule="evenodd"/></g></svg>